ISO-10303-21;
HEADER;
/* Generated by software containing ST-Developer
 * from STEP Tools, Inc. (www.steptools.com) 
 */

FILE_DESCRIPTION(
/* description */ (''),
/* implementation_level */ '2;1');

FILE_NAME(
/* name */ 'CAD_case_lid.step',
/* time_stamp */ '2026-09-12T16:25:58+01:00',
/* author */ (''),
/* organization */ (''),
/* preprocessor_version */ 'ST-DEVELOPER v20.2',
/* originating_system */ 'Autodesk Translation Framework v15.15.0.0',
/* authorisation */ '');

FILE_SCHEMA (('AUTOMOTIVE_DESIGN { 1 0 10303 214 3 1 1 }'));
ENDSEC;

DATA;
#10=MECHANICAL_DESIGN_GEOMETRIC_PRESENTATION_REPRESENTATION('',(#13),#1234);
#11=SHAPE_REPRESENTATION_RELATIONSHIP('SRR','None',#1241,#12);
#12=ADVANCED_BREP_SHAPE_REPRESENTATION('',(#14),#1233);
#13=STYLED_ITEM('',(#1251),#14);
#14=MANIFOLD_SOLID_BREP('Body1',#754);
#15=FACE_BOUND('',#93,.T.);
#16=FACE_BOUND('',#94,.T.);
#17=FACE_BOUND('',#95,.T.);
#18=FACE_BOUND('',#125,.T.);
#19=FACE_BOUND('',#126,.T.);
#20=FACE_BOUND('',#127,.T.);
#21=PLANE('',#774);
#22=PLANE('',#775);
#23=PLANE('',#776);
#24=PLANE('',#777);
#25=PLANE('',#786);
#26=PLANE('',#787);
#27=PLANE('',#788);
#28=PLANE('',#794);
#29=PLANE('',#795);
#30=PLANE('',#801);
#31=PLANE('',#802);
#32=PLANE('',#803);
#33=PLANE('',#804);
#34=PLANE('',#805);
#35=PLANE('',#806);
#36=PLANE('',#807);
#37=PLANE('',#808);
#38=PLANE('',#809);
#39=PLANE('',#810);
#40=PLANE('',#811);
#41=PLANE('',#812);
#42=PLANE('',#813);
#43=PLANE('',#814);
#44=PLANE('',#815);
#45=PLANE('',#816);
#46=PLANE('',#817);
#47=PLANE('',#818);
#48=PLANE('',#819);
#49=PLANE('',#820);
#50=FACE_OUTER_BOUND('',#87,.T.);
#51=FACE_OUTER_BOUND('',#88,.T.);
#52=FACE_OUTER_BOUND('',#89,.T.);
#53=FACE_OUTER_BOUND('',#90,.T.);
#54=FACE_OUTER_BOUND('',#91,.T.);
#55=FACE_OUTER_BOUND('',#92,.T.);
#56=FACE_OUTER_BOUND('',#96,.T.);
#57=FACE_OUTER_BOUND('',#97,.T.);
#58=FACE_OUTER_BOUND('',#98,.T.);
#59=FACE_OUTER_BOUND('',#99,.T.);
#60=FACE_OUTER_BOUND('',#100,.T.);
#61=FACE_OUTER_BOUND('',#101,.T.);
#62=FACE_OUTER_BOUND('',#102,.T.);
#63=FACE_OUTER_BOUND('',#103,.T.);
#64=FACE_OUTER_BOUND('',#104,.T.);
#65=FACE_OUTER_BOUND('',#105,.T.);
#66=FACE_OUTER_BOUND('',#106,.T.);
#67=FACE_OUTER_BOUND('',#107,.T.);
#68=FACE_OUTER_BOUND('',#108,.T.);
#69=FACE_OUTER_BOUND('',#109,.T.);
#70=FACE_OUTER_BOUND('',#110,.T.);
#71=FACE_OUTER_BOUND('',#111,.T.);
#72=FACE_OUTER_BOUND('',#112,.T.);
#73=FACE_OUTER_BOUND('',#113,.T.);
#74=FACE_OUTER_BOUND('',#114,.T.);
#75=FACE_OUTER_BOUND('',#115,.T.);
#76=FACE_OUTER_BOUND('',#116,.T.);
#77=FACE_OUTER_BOUND('',#117,.T.);
#78=FACE_OUTER_BOUND('',#118,.T.);
#79=FACE_OUTER_BOUND('',#119,.T.);
#80=FACE_OUTER_BOUND('',#120,.T.);
#81=FACE_OUTER_BOUND('',#121,.T.);
#82=FACE_OUTER_BOUND('',#122,.T.);
#83=FACE_OUTER_BOUND('',#123,.T.);
#84=FACE_OUTER_BOUND('',#124,.T.);
#85=FACE_OUTER_BOUND('',#128,.T.);
#86=FACE_OUTER_BOUND('',#129,.T.);
#87=EDGE_LOOP('',(#499,#500,#501,#502));
#88=EDGE_LOOP('',(#503,#504,#505,#506));
#89=EDGE_LOOP('',(#507,#508,#509,#510));
#90=EDGE_LOOP('',(#511,#512,#513,#514,#515,#516,#517,#518));
#91=EDGE_LOOP('',(#519,#520,#521));
#92=EDGE_LOOP('',(#522,#523,#524,#525,#526,#527,#528,#529,#530,#531,#532));
#93=EDGE_LOOP('',(#533,#534,#535,#536));
#94=EDGE_LOOP('',(#537,#538,#539,#540));
#95=EDGE_LOOP('',(#541,#542,#543,#544));
#96=EDGE_LOOP('',(#545,#546,#547,#548));
#97=EDGE_LOOP('',(#549,#550,#551,#552));
#98=EDGE_LOOP('',(#553,#554,#555,#556));
#99=EDGE_LOOP('',(#557,#558,#559,#560,#561,#562,#563,#564,#565,#566,#567,
#568));
#100=EDGE_LOOP('',(#569,#570,#571));
#101=EDGE_LOOP('',(#572,#573,#574,#575));
#102=EDGE_LOOP('',(#576,#577,#578,#579));
#103=EDGE_LOOP('',(#580,#581,#582,#583));
#104=EDGE_LOOP('',(#584,#585,#586));
#105=EDGE_LOOP('',(#587,#588,#589,#590));
#106=EDGE_LOOP('',(#591,#592,#593,#594));
#107=EDGE_LOOP('',(#595,#596,#597,#598));
#108=EDGE_LOOP('',(#599,#600,#601,#602,#603,#604,#605,#606,#607,#608,#609,
#610));
#109=EDGE_LOOP('',(#611,#612,#613));
#110=EDGE_LOOP('',(#614,#615,#616,#617));
#111=EDGE_LOOP('',(#618,#619,#620,#621));
#112=EDGE_LOOP('',(#622,#623,#624,#625));
#113=EDGE_LOOP('',(#626,#627,#628,#629));
#114=EDGE_LOOP('',(#630,#631,#632,#633));
#115=EDGE_LOOP('',(#634,#635,#636,#637));
#116=EDGE_LOOP('',(#638,#639,#640,#641));
#117=EDGE_LOOP('',(#642,#643,#644,#645));
#118=EDGE_LOOP('',(#646,#647,#648,#649));
#119=EDGE_LOOP('',(#650,#651,#652,#653));
#120=EDGE_LOOP('',(#654,#655,#656,#657));
#121=EDGE_LOOP('',(#658,#659,#660,#661));
#122=EDGE_LOOP('',(#662,#663,#664,#665));
#123=EDGE_LOOP('',(#666,#667,#668,#669,#670,#671,#672,#673));
#124=EDGE_LOOP('',(#674,#675,#676,#677,#678,#679,#680));
#125=EDGE_LOOP('',(#681,#682,#683,#684));
#126=EDGE_LOOP('',(#685,#686,#687,#688));
#127=EDGE_LOOP('',(#689,#690,#691,#692));
#128=EDGE_LOOP('',(#693,#694,#695,#696));
#129=EDGE_LOOP('',(#697,#698,#699,#700,#701,#702,#703,#704,#705,#706,#707,
#708));
#130=CIRCLE('',#769,0.5085);
#131=CIRCLE('',#770,0.5085);
#132=CIRCLE('',#772,0.5085);
#133=CIRCLE('',#773,0.5085);
#134=CIRCLE('',#778,0.5085);
#135=CIRCLE('',#779,0.5085);
#136=CIRCLE('',#780,0.5085);
#137=CIRCLE('',#782,0.5085);
#138=CIRCLE('',#783,0.5085);
#139=CIRCLE('',#785,0.5085);
#140=CIRCLE('',#790,0.5085);
#141=CIRCLE('',#792,0.5085);
#142=CIRCLE('',#793,0.5085);
#143=CIRCLE('',#797,0.5085);
#144=CIRCLE('',#798,0.5085);
#145=CIRCLE('',#800,0.5085);
#146=LINE('',#1022,#235);
#147=LINE('',#1026,#236);
#148=LINE('',#1031,#237);
#149=LINE('',#1035,#238);
#150=LINE('',#1038,#239);
#151=LINE('',#1039,#240);
#152=LINE('',#1042,#241);
#153=LINE('',#1044,#242);
#154=LINE('',#1046,#243);
#155=LINE('',#1048,#244);
#156=LINE('',#1049,#245);
#157=LINE('',#1051,#246);
#158=LINE('',#1054,#247);
#159=LINE('',#1056,#248);
#160=LINE('',#1058,#249);
#161=LINE('',#1062,#250);
#162=LINE('',#1066,#251);
#163=LINE('',#1069,#252);
#164=LINE('',#1072,#253);
#165=LINE('',#1074,#254);
#166=LINE('',#1076,#255);
#167=LINE('',#1077,#256);
#168=LINE('',#1080,#257);
#169=LINE('',#1082,#258);
#170=LINE('',#1084,#259);
#171=LINE('',#1085,#260);
#172=LINE('',#1088,#261);
#173=LINE('',#1090,#262);
#174=LINE('',#1092,#263);
#175=LINE('',#1093,#264);
#176=LINE('',#1097,#265);
#177=LINE('',#1101,#266);
#178=LINE('',#1105,#267);
#179=LINE('',#1108,#268);
#180=LINE('',#1110,#269);
#181=LINE('',#1111,#270);
#182=LINE('',#1114,#271);
#183=LINE('',#1116,#272);
#184=LINE('',#1118,#273);
#185=LINE('',#1120,#274);
#186=LINE('',#1122,#275);
#187=LINE('',#1124,#276);
#188=LINE('',#1126,#277);
#189=LINE('',#1127,#278);
#190=LINE('',#1129,#279);
#191=LINE('',#1132,#280);
#192=LINE('',#1137,#281);
#193=LINE('',#1141,#282);
#194=LINE('',#1143,#283);
#195=LINE('',#1147,#284);
#196=LINE('',#1151,#285);
#197=LINE('',#1155,#286);
#198=LINE('',#1158,#287);
#199=LINE('',#1160,#288);
#200=LINE('',#1161,#289);
#201=LINE('',#1164,#290);
#202=LINE('',#1166,#291);
#203=LINE('',#1167,#292);
#204=LINE('',#1169,#293);
#205=LINE('',#1173,#294);
#206=LINE('',#1174,#295);
#207=LINE('',#1175,#296);
#208=LINE('',#1178,#297);
#209=LINE('',#1179,#298);
#210=LINE('',#1182,#299);
#211=LINE('',#1183,#300);
#212=LINE('',#1185,#301);
#213=LINE('',#1189,#302);
#214=LINE('',#1190,#303);
#215=LINE('',#1191,#304);
#216=LINE('',#1194,#305);
#217=LINE('',#1195,#306);
#218=LINE('',#1198,#307);
#219=LINE('',#1199,#308);
#220=LINE('',#1201,#309);
#221=LINE('',#1205,#310);
#222=LINE('',#1206,#311);
#223=LINE('',#1207,#312);
#224=LINE('',#1210,#313);
#225=LINE('',#1211,#314);
#226=LINE('',#1214,#315);
#227=LINE('',#1215,#316);
#228=LINE('',#1217,#317);
#229=LINE('',#1220,#318);
#230=LINE('',#1222,#319);
#231=LINE('',#1223,#320);
#232=LINE('',#1225,#321);
#233=LINE('',#1227,#322);
#234=LINE('',#1228,#323);
#235=VECTOR('',#825,1.);
#236=VECTOR('',#828,1.);
#237=VECTOR('',#833,1.);
#238=VECTOR('',#836,1.);
#239=VECTOR('',#841,1.);
#240=VECTOR('',#842,1.);
#241=VECTOR('',#845,1.);
#242=VECTOR('',#846,1.);
#243=VECTOR('',#847,1.);
#244=VECTOR('',#848,0.159580153924542);
#245=VECTOR('',#849,1.);
#246=VECTOR('',#852,0.773437499999998);
#247=VECTOR('',#855,1.);
#248=VECTOR('',#856,1.);
#249=VECTOR('',#857,4.3);
#250=VECTOR('',#860,0.773437499999998);
#251=VECTOR('',#863,4.3);
#252=VECTOR('',#866,0.773437499999998);
#253=VECTOR('',#867,1.);
#254=VECTOR('',#868,1.);
#255=VECTOR('',#869,1.);
#256=VECTOR('',#870,1.);
#257=VECTOR('',#871,1.);
#258=VECTOR('',#872,1.);
#259=VECTOR('',#873,1.);
#260=VECTOR('',#874,1.);
#261=VECTOR('',#875,1.);
#262=VECTOR('',#876,1.);
#263=VECTOR('',#877,1.);
#264=VECTOR('',#878,1.);
#265=VECTOR('',#881,1.);
#266=VECTOR('',#884,1.);
#267=VECTOR('',#889,1.);
#268=VECTOR('',#892,1.);
#269=VECTOR('',#895,1.);
#270=VECTOR('',#896,1.);
#271=VECTOR('',#899,0.773437499999998);
#272=VECTOR('',#900,0.0999999969724617);
#273=VECTOR('',#901,2.5265625);
#274=VECTOR('',#902,0.0999999969724617);
#275=VECTOR('',#903,0.773437499999998);
#276=VECTOR('',#904,1.);
#277=VECTOR('',#905,1.);
#278=VECTOR('',#906,1.);
#279=VECTOR('',#909,4.3);
#280=VECTOR('',#912,1.);
#281=VECTOR('',#917,1.);
#282=VECTOR('',#924,1.);
#283=VECTOR('',#927,4.3);
#284=VECTOR('',#930,1.);
#285=VECTOR('',#933,1.);
#286=VECTOR('',#938,1.);
#287=VECTOR('',#941,1.);
#288=VECTOR('',#944,1.);
#289=VECTOR('',#945,1.);
#290=VECTOR('',#948,0.773437499999998);
#291=VECTOR('',#949,0.0999999969724617);
#292=VECTOR('',#950,0.773437499999998);
#293=VECTOR('',#953,4.3);
#294=VECTOR('',#956,1.);
#295=VECTOR('',#957,1.00084999999999);
#296=VECTOR('',#958,1.00084999999999);
#297=VECTOR('',#961,1.);
#298=VECTOR('',#962,1.00084999999999);
#299=VECTOR('',#965,1.);
#300=VECTOR('',#966,1.00084999999999);
#301=VECTOR('',#969,1.);
#302=VECTOR('',#972,1.);
#303=VECTOR('',#973,1.00084999999999);
#304=VECTOR('',#974,1.00084999999999);
#305=VECTOR('',#977,1.);
#306=VECTOR('',#978,1.00084999999999);
#307=VECTOR('',#981,1.);
#308=VECTOR('',#982,1.00084999999999);
#309=VECTOR('',#985,1.);
#310=VECTOR('',#988,1.);
#311=VECTOR('',#989,1.00084999999999);
#312=VECTOR('',#990,1.00084999999999);
#313=VECTOR('',#993,1.);
#314=VECTOR('',#994,1.00084999999999);
#315=VECTOR('',#997,1.);
#316=VECTOR('',#998,1.00084999999999);
#317=VECTOR('',#1001,1.);
#318=VECTOR('',#1004,1.);
#319=VECTOR('',#1005,1.);
#320=VECTOR('',#1006,1.);
#321=VECTOR('',#1009,4.3);
#322=VECTOR('',#1012,1.);
#323=VECTOR('',#1013,4.3);
#324=VERTEX_POINT('',#1020);
#325=VERTEX_POINT('',#1021);
#326=VERTEX_POINT('',#1023);
#327=VERTEX_POINT('',#1025);
#328=VERTEX_POINT('',#1029);
#329=VERTEX_POINT('',#1030);
#330=VERTEX_POINT('',#1032);
#331=VERTEX_POINT('',#1034);
#332=VERTEX_POINT('',#1041);
#333=VERTEX_POINT('',#1043);
#334=VERTEX_POINT('',#1045);
#335=VERTEX_POINT('',#1047);
#336=VERTEX_POINT('',#1053);
#337=VERTEX_POINT('',#1055);
#338=VERTEX_POINT('',#1057);
#339=VERTEX_POINT('',#1059);
#340=VERTEX_POINT('',#1061);
#341=VERTEX_POINT('',#1063);
#342=VERTEX_POINT('',#1065);
#343=VERTEX_POINT('',#1067);
#344=VERTEX_POINT('',#1070);
#345=VERTEX_POINT('',#1071);
#346=VERTEX_POINT('',#1073);
#347=VERTEX_POINT('',#1075);
#348=VERTEX_POINT('',#1078);
#349=VERTEX_POINT('',#1079);
#350=VERTEX_POINT('',#1081);
#351=VERTEX_POINT('',#1083);
#352=VERTEX_POINT('',#1086);
#353=VERTEX_POINT('',#1087);
#354=VERTEX_POINT('',#1089);
#355=VERTEX_POINT('',#1091);
#356=VERTEX_POINT('',#1095);
#357=VERTEX_POINT('',#1096);
#358=VERTEX_POINT('',#1098);
#359=VERTEX_POINT('',#1100);
#360=VERTEX_POINT('',#1104);
#361=VERTEX_POINT('',#1106);
#362=VERTEX_POINT('',#1113);
#363=VERTEX_POINT('',#1115);
#364=VERTEX_POINT('',#1117);
#365=VERTEX_POINT('',#1119);
#366=VERTEX_POINT('',#1121);
#367=VERTEX_POINT('',#1123);
#368=VERTEX_POINT('',#1125);
#369=VERTEX_POINT('',#1131);
#370=VERTEX_POINT('',#1135);
#371=VERTEX_POINT('',#1136);
#372=VERTEX_POINT('',#1145);
#373=VERTEX_POINT('',#1146);
#374=VERTEX_POINT('',#1148);
#375=VERTEX_POINT('',#1150);
#376=VERTEX_POINT('',#1154);
#377=VERTEX_POINT('',#1156);
#378=VERTEX_POINT('',#1163);
#379=VERTEX_POINT('',#1165);
#380=VERTEX_POINT('',#1171);
#381=VERTEX_POINT('',#1172);
#382=VERTEX_POINT('',#1177);
#383=VERTEX_POINT('',#1181);
#384=VERTEX_POINT('',#1187);
#385=VERTEX_POINT('',#1188);
#386=VERTEX_POINT('',#1193);
#387=VERTEX_POINT('',#1197);
#388=VERTEX_POINT('',#1203);
#389=VERTEX_POINT('',#1204);
#390=VERTEX_POINT('',#1209);
#391=VERTEX_POINT('',#1213);
#392=VERTEX_POINT('',#1219);
#393=VERTEX_POINT('',#1221);
#394=EDGE_CURVE('',#324,#325,#146,.T.);
#395=EDGE_CURVE('',#326,#324,#130,.T.);
#396=EDGE_CURVE('',#327,#326,#147,.T.);
#397=EDGE_CURVE('',#327,#325,#131,.T.);
#398=EDGE_CURVE('',#328,#329,#148,.T.);
#399=EDGE_CURVE('',#328,#330,#132,.T.);
#400=EDGE_CURVE('',#331,#330,#149,.T.);
#401=EDGE_CURVE('',#329,#331,#133,.T.);
#402=EDGE_CURVE('',#325,#328,#150,.T.);
#403=EDGE_CURVE('',#330,#327,#151,.T.);
#404=EDGE_CURVE('',#332,#326,#152,.T.);
#405=EDGE_CURVE('',#333,#332,#153,.T.);
#406=EDGE_CURVE('',#334,#333,#154,.T.);
#407=EDGE_CURVE('',#335,#334,#155,.T.);
#408=EDGE_CURVE('',#331,#335,#156,.T.);
#409=EDGE_CURVE('',#324,#332,#157,.T.);
#410=EDGE_CURVE('',#335,#336,#158,.T.);
#411=EDGE_CURVE('',#336,#337,#159,.T.);
#412=EDGE_CURVE('',#338,#337,#160,.T.);
#413=EDGE_CURVE('',#338,#339,#134,.T.);
#414=EDGE_CURVE('',#340,#339,#161,.T.);
#415=EDGE_CURVE('',#340,#341,#135,.T.);
#416=EDGE_CURVE('',#342,#341,#162,.T.);
#417=EDGE_CURVE('',#342,#343,#136,.T.);
#418=EDGE_CURVE('',#343,#329,#163,.T.);
#419=EDGE_CURVE('',#344,#345,#164,.T.);
#420=EDGE_CURVE('',#345,#346,#165,.T.);
#421=EDGE_CURVE('',#346,#347,#166,.T.);
#422=EDGE_CURVE('',#347,#344,#167,.T.);
#423=EDGE_CURVE('',#348,#349,#168,.T.);
#424=EDGE_CURVE('',#349,#350,#169,.T.);
#425=EDGE_CURVE('',#350,#351,#170,.T.);
#426=EDGE_CURVE('',#351,#348,#171,.T.);
#427=EDGE_CURVE('',#352,#353,#172,.T.);
#428=EDGE_CURVE('',#353,#354,#173,.T.);
#429=EDGE_CURVE('',#354,#355,#174,.T.);
#430=EDGE_CURVE('',#355,#352,#175,.T.);
#431=EDGE_CURVE('',#356,#357,#176,.T.);
#432=EDGE_CURVE('',#358,#356,#137,.T.);
#433=EDGE_CURVE('',#359,#358,#177,.T.);
#434=EDGE_CURVE('',#359,#357,#138,.T.);
#435=EDGE_CURVE('',#360,#338,#178,.T.);
#436=EDGE_CURVE('',#360,#361,#139,.T.);
#437=EDGE_CURVE('',#339,#361,#179,.T.);
#438=EDGE_CURVE('',#357,#360,#180,.T.);
#439=EDGE_CURVE('',#361,#359,#181,.T.);
#440=EDGE_CURVE('',#358,#362,#182,.T.);
#441=EDGE_CURVE('',#363,#362,#183,.T.);
#442=EDGE_CURVE('',#364,#363,#184,.T.);
#443=EDGE_CURVE('',#365,#364,#185,.T.);
#444=EDGE_CURVE('',#365,#366,#186,.T.);
#445=EDGE_CURVE('',#366,#367,#187,.T.);
#446=EDGE_CURVE('',#367,#368,#188,.T.);
#447=EDGE_CURVE('',#368,#340,#189,.T.);
#448=EDGE_CURVE('',#362,#356,#190,.T.);
#449=EDGE_CURVE('',#341,#369,#191,.T.);
#450=EDGE_CURVE('',#368,#369,#140,.T.);
#451=EDGE_CURVE('',#370,#371,#192,.T.);
#452=EDGE_CURVE('',#370,#367,#141,.T.);
#453=EDGE_CURVE('',#371,#366,#142,.T.);
#454=EDGE_CURVE('',#369,#370,#193,.T.);
#455=EDGE_CURVE('',#371,#365,#194,.T.);
#456=EDGE_CURVE('',#372,#373,#195,.T.);
#457=EDGE_CURVE('',#374,#372,#143,.T.);
#458=EDGE_CURVE('',#375,#374,#196,.T.);
#459=EDGE_CURVE('',#375,#373,#144,.T.);
#460=EDGE_CURVE('',#376,#342,#197,.T.);
#461=EDGE_CURVE('',#376,#377,#145,.T.);
#462=EDGE_CURVE('',#343,#377,#198,.T.);
#463=EDGE_CURVE('',#373,#376,#199,.T.);
#464=EDGE_CURVE('',#377,#375,#200,.T.);
#465=EDGE_CURVE('',#378,#374,#201,.T.);
#466=EDGE_CURVE('',#379,#378,#202,.T.);
#467=EDGE_CURVE('',#379,#333,#203,.T.);
#468=EDGE_CURVE('',#378,#372,#204,.T.);
#469=EDGE_CURVE('',#380,#381,#205,.T.);
#470=EDGE_CURVE('',#355,#380,#206,.T.);
#471=EDGE_CURVE('',#381,#354,#207,.T.);
#472=EDGE_CURVE('',#381,#382,#208,.T.);
#473=EDGE_CURVE('',#353,#382,#209,.T.);
#474=EDGE_CURVE('',#382,#383,#210,.T.);
#475=EDGE_CURVE('',#383,#352,#211,.T.);
#476=EDGE_CURVE('',#383,#380,#212,.T.);
#477=EDGE_CURVE('',#384,#385,#213,.T.);
#478=EDGE_CURVE('',#351,#384,#214,.T.);
#479=EDGE_CURVE('',#385,#350,#215,.T.);
#480=EDGE_CURVE('',#385,#386,#216,.T.);
#481=EDGE_CURVE('',#349,#386,#217,.T.);
#482=EDGE_CURVE('',#386,#387,#218,.T.);
#483=EDGE_CURVE('',#387,#348,#219,.T.);
#484=EDGE_CURVE('',#387,#384,#220,.T.);
#485=EDGE_CURVE('',#388,#389,#221,.T.);
#486=EDGE_CURVE('',#347,#388,#222,.T.);
#487=EDGE_CURVE('',#389,#346,#223,.T.);
#488=EDGE_CURVE('',#389,#390,#224,.T.);
#489=EDGE_CURVE('',#345,#390,#225,.T.);
#490=EDGE_CURVE('',#390,#391,#226,.T.);
#491=EDGE_CURVE('',#391,#344,#227,.T.);
#492=EDGE_CURVE('',#391,#388,#228,.T.);
#493=EDGE_CURVE('',#392,#336,#229,.T.);
#494=EDGE_CURVE('',#393,#392,#230,.T.);
#495=EDGE_CURVE('',#337,#393,#231,.T.);
#496=EDGE_CURVE('',#393,#363,#232,.T.);
#497=EDGE_CURVE('',#392,#334,#233,.T.);
#498=EDGE_CURVE('',#364,#379,#234,.T.);
#499=ORIENTED_EDGE('',*,*,#394,.F.);
#500=ORIENTED_EDGE('',*,*,#395,.F.);
#501=ORIENTED_EDGE('',*,*,#396,.F.);
#502=ORIENTED_EDGE('',*,*,#397,.T.);
#503=ORIENTED_EDGE('',*,*,#398,.F.);
#504=ORIENTED_EDGE('',*,*,#399,.T.);
#505=ORIENTED_EDGE('',*,*,#400,.F.);
#506=ORIENTED_EDGE('',*,*,#401,.F.);
#507=ORIENTED_EDGE('',*,*,#402,.F.);
#508=ORIENTED_EDGE('',*,*,#397,.F.);
#509=ORIENTED_EDGE('',*,*,#403,.F.);
#510=ORIENTED_EDGE('',*,*,#399,.F.);
#511=ORIENTED_EDGE('',*,*,#400,.T.);
#512=ORIENTED_EDGE('',*,*,#403,.T.);
#513=ORIENTED_EDGE('',*,*,#396,.T.);
#514=ORIENTED_EDGE('',*,*,#404,.F.);
#515=ORIENTED_EDGE('',*,*,#405,.F.);
#516=ORIENTED_EDGE('',*,*,#406,.F.);
#517=ORIENTED_EDGE('',*,*,#407,.F.);
#518=ORIENTED_EDGE('',*,*,#408,.F.);
#519=ORIENTED_EDGE('',*,*,#395,.T.);
#520=ORIENTED_EDGE('',*,*,#409,.T.);
#521=ORIENTED_EDGE('',*,*,#404,.T.);
#522=ORIENTED_EDGE('',*,*,#401,.T.);
#523=ORIENTED_EDGE('',*,*,#408,.T.);
#524=ORIENTED_EDGE('',*,*,#410,.T.);
#525=ORIENTED_EDGE('',*,*,#411,.T.);
#526=ORIENTED_EDGE('',*,*,#412,.F.);
#527=ORIENTED_EDGE('',*,*,#413,.T.);
#528=ORIENTED_EDGE('',*,*,#414,.F.);
#529=ORIENTED_EDGE('',*,*,#415,.T.);
#530=ORIENTED_EDGE('',*,*,#416,.F.);
#531=ORIENTED_EDGE('',*,*,#417,.T.);
#532=ORIENTED_EDGE('',*,*,#418,.T.);
#533=ORIENTED_EDGE('',*,*,#419,.T.);
#534=ORIENTED_EDGE('',*,*,#420,.T.);
#535=ORIENTED_EDGE('',*,*,#421,.T.);
#536=ORIENTED_EDGE('',*,*,#422,.T.);
#537=ORIENTED_EDGE('',*,*,#423,.T.);
#538=ORIENTED_EDGE('',*,*,#424,.T.);
#539=ORIENTED_EDGE('',*,*,#425,.T.);
#540=ORIENTED_EDGE('',*,*,#426,.T.);
#541=ORIENTED_EDGE('',*,*,#427,.T.);
#542=ORIENTED_EDGE('',*,*,#428,.T.);
#543=ORIENTED_EDGE('',*,*,#429,.T.);
#544=ORIENTED_EDGE('',*,*,#430,.T.);
#545=ORIENTED_EDGE('',*,*,#431,.F.);
#546=ORIENTED_EDGE('',*,*,#432,.F.);
#547=ORIENTED_EDGE('',*,*,#433,.F.);
#548=ORIENTED_EDGE('',*,*,#434,.T.);
#549=ORIENTED_EDGE('',*,*,#435,.F.);
#550=ORIENTED_EDGE('',*,*,#436,.T.);
#551=ORIENTED_EDGE('',*,*,#437,.F.);
#552=ORIENTED_EDGE('',*,*,#413,.F.);
#553=ORIENTED_EDGE('',*,*,#438,.F.);
#554=ORIENTED_EDGE('',*,*,#434,.F.);
#555=ORIENTED_EDGE('',*,*,#439,.F.);
#556=ORIENTED_EDGE('',*,*,#436,.F.);
#557=ORIENTED_EDGE('',*,*,#437,.T.);
#558=ORIENTED_EDGE('',*,*,#439,.T.);
#559=ORIENTED_EDGE('',*,*,#433,.T.);
#560=ORIENTED_EDGE('',*,*,#440,.T.);
#561=ORIENTED_EDGE('',*,*,#441,.F.);
#562=ORIENTED_EDGE('',*,*,#442,.F.);
#563=ORIENTED_EDGE('',*,*,#443,.F.);
#564=ORIENTED_EDGE('',*,*,#444,.T.);
#565=ORIENTED_EDGE('',*,*,#445,.T.);
#566=ORIENTED_EDGE('',*,*,#446,.T.);
#567=ORIENTED_EDGE('',*,*,#447,.T.);
#568=ORIENTED_EDGE('',*,*,#414,.T.);
#569=ORIENTED_EDGE('',*,*,#432,.T.);
#570=ORIENTED_EDGE('',*,*,#448,.F.);
#571=ORIENTED_EDGE('',*,*,#440,.F.);
#572=ORIENTED_EDGE('',*,*,#449,.F.);
#573=ORIENTED_EDGE('',*,*,#415,.F.);
#574=ORIENTED_EDGE('',*,*,#447,.F.);
#575=ORIENTED_EDGE('',*,*,#450,.T.);
#576=ORIENTED_EDGE('',*,*,#451,.F.);
#577=ORIENTED_EDGE('',*,*,#452,.T.);
#578=ORIENTED_EDGE('',*,*,#445,.F.);
#579=ORIENTED_EDGE('',*,*,#453,.F.);
#580=ORIENTED_EDGE('',*,*,#454,.F.);
#581=ORIENTED_EDGE('',*,*,#450,.F.);
#582=ORIENTED_EDGE('',*,*,#446,.F.);
#583=ORIENTED_EDGE('',*,*,#452,.F.);
#584=ORIENTED_EDGE('',*,*,#453,.T.);
#585=ORIENTED_EDGE('',*,*,#444,.F.);
#586=ORIENTED_EDGE('',*,*,#455,.F.);
#587=ORIENTED_EDGE('',*,*,#456,.F.);
#588=ORIENTED_EDGE('',*,*,#457,.F.);
#589=ORIENTED_EDGE('',*,*,#458,.F.);
#590=ORIENTED_EDGE('',*,*,#459,.T.);
#591=ORIENTED_EDGE('',*,*,#460,.F.);
#592=ORIENTED_EDGE('',*,*,#461,.T.);
#593=ORIENTED_EDGE('',*,*,#462,.F.);
#594=ORIENTED_EDGE('',*,*,#417,.F.);
#595=ORIENTED_EDGE('',*,*,#463,.F.);
#596=ORIENTED_EDGE('',*,*,#459,.F.);
#597=ORIENTED_EDGE('',*,*,#464,.F.);
#598=ORIENTED_EDGE('',*,*,#461,.F.);
#599=ORIENTED_EDGE('',*,*,#398,.T.);
#600=ORIENTED_EDGE('',*,*,#418,.F.);
#601=ORIENTED_EDGE('',*,*,#462,.T.);
#602=ORIENTED_EDGE('',*,*,#464,.T.);
#603=ORIENTED_EDGE('',*,*,#458,.T.);
#604=ORIENTED_EDGE('',*,*,#465,.F.);
#605=ORIENTED_EDGE('',*,*,#466,.F.);
#606=ORIENTED_EDGE('',*,*,#467,.T.);
#607=ORIENTED_EDGE('',*,*,#405,.T.);
#608=ORIENTED_EDGE('',*,*,#409,.F.);
#609=ORIENTED_EDGE('',*,*,#394,.T.);
#610=ORIENTED_EDGE('',*,*,#402,.T.);
#611=ORIENTED_EDGE('',*,*,#457,.T.);
#612=ORIENTED_EDGE('',*,*,#468,.F.);
#613=ORIENTED_EDGE('',*,*,#465,.T.);
#614=ORIENTED_EDGE('',*,*,#469,.F.);
#615=ORIENTED_EDGE('',*,*,#470,.F.);
#616=ORIENTED_EDGE('',*,*,#429,.F.);
#617=ORIENTED_EDGE('',*,*,#471,.F.);
#618=ORIENTED_EDGE('',*,*,#472,.F.);
#619=ORIENTED_EDGE('',*,*,#471,.T.);
#620=ORIENTED_EDGE('',*,*,#428,.F.);
#621=ORIENTED_EDGE('',*,*,#473,.T.);
#622=ORIENTED_EDGE('',*,*,#474,.F.);
#623=ORIENTED_EDGE('',*,*,#473,.F.);
#624=ORIENTED_EDGE('',*,*,#427,.F.);
#625=ORIENTED_EDGE('',*,*,#475,.F.);
#626=ORIENTED_EDGE('',*,*,#476,.F.);
#627=ORIENTED_EDGE('',*,*,#475,.T.);
#628=ORIENTED_EDGE('',*,*,#430,.F.);
#629=ORIENTED_EDGE('',*,*,#470,.T.);
#630=ORIENTED_EDGE('',*,*,#477,.F.);
#631=ORIENTED_EDGE('',*,*,#478,.F.);
#632=ORIENTED_EDGE('',*,*,#425,.F.);
#633=ORIENTED_EDGE('',*,*,#479,.F.);
#634=ORIENTED_EDGE('',*,*,#480,.F.);
#635=ORIENTED_EDGE('',*,*,#479,.T.);
#636=ORIENTED_EDGE('',*,*,#424,.F.);
#637=ORIENTED_EDGE('',*,*,#481,.T.);
#638=ORIENTED_EDGE('',*,*,#482,.F.);
#639=ORIENTED_EDGE('',*,*,#481,.F.);
#640=ORIENTED_EDGE('',*,*,#423,.F.);
#641=ORIENTED_EDGE('',*,*,#483,.F.);
#642=ORIENTED_EDGE('',*,*,#484,.F.);
#643=ORIENTED_EDGE('',*,*,#483,.T.);
#644=ORIENTED_EDGE('',*,*,#426,.F.);
#645=ORIENTED_EDGE('',*,*,#478,.T.);
#646=ORIENTED_EDGE('',*,*,#485,.F.);
#647=ORIENTED_EDGE('',*,*,#486,.F.);
#648=ORIENTED_EDGE('',*,*,#421,.F.);
#649=ORIENTED_EDGE('',*,*,#487,.F.);
#650=ORIENTED_EDGE('',*,*,#488,.F.);
#651=ORIENTED_EDGE('',*,*,#487,.T.);
#652=ORIENTED_EDGE('',*,*,#420,.F.);
#653=ORIENTED_EDGE('',*,*,#489,.T.);
#654=ORIENTED_EDGE('',*,*,#490,.F.);
#655=ORIENTED_EDGE('',*,*,#489,.F.);
#656=ORIENTED_EDGE('',*,*,#419,.F.);
#657=ORIENTED_EDGE('',*,*,#491,.F.);
#658=ORIENTED_EDGE('',*,*,#492,.F.);
#659=ORIENTED_EDGE('',*,*,#491,.T.);
#660=ORIENTED_EDGE('',*,*,#422,.F.);
#661=ORIENTED_EDGE('',*,*,#486,.T.);
#662=ORIENTED_EDGE('',*,*,#493,.F.);
#663=ORIENTED_EDGE('',*,*,#494,.F.);
#664=ORIENTED_EDGE('',*,*,#495,.F.);
#665=ORIENTED_EDGE('',*,*,#411,.F.);
#666=ORIENTED_EDGE('',*,*,#435,.T.);
#667=ORIENTED_EDGE('',*,*,#412,.T.);
#668=ORIENTED_EDGE('',*,*,#495,.T.);
#669=ORIENTED_EDGE('',*,*,#496,.T.);
#670=ORIENTED_EDGE('',*,*,#441,.T.);
#671=ORIENTED_EDGE('',*,*,#448,.T.);
#672=ORIENTED_EDGE('',*,*,#431,.T.);
#673=ORIENTED_EDGE('',*,*,#438,.T.);
#674=ORIENTED_EDGE('',*,*,#494,.T.);
#675=ORIENTED_EDGE('',*,*,#497,.T.);
#676=ORIENTED_EDGE('',*,*,#406,.T.);
#677=ORIENTED_EDGE('',*,*,#467,.F.);
#678=ORIENTED_EDGE('',*,*,#498,.F.);
#679=ORIENTED_EDGE('',*,*,#442,.T.);
#680=ORIENTED_EDGE('',*,*,#496,.F.);
#681=ORIENTED_EDGE('',*,*,#474,.T.);
#682=ORIENTED_EDGE('',*,*,#476,.T.);
#683=ORIENTED_EDGE('',*,*,#469,.T.);
#684=ORIENTED_EDGE('',*,*,#472,.T.);
#685=ORIENTED_EDGE('',*,*,#482,.T.);
#686=ORIENTED_EDGE('',*,*,#484,.T.);
#687=ORIENTED_EDGE('',*,*,#477,.T.);
#688=ORIENTED_EDGE('',*,*,#480,.T.);
#689=ORIENTED_EDGE('',*,*,#490,.T.);
#690=ORIENTED_EDGE('',*,*,#492,.T.);
#691=ORIENTED_EDGE('',*,*,#485,.T.);
#692=ORIENTED_EDGE('',*,*,#488,.T.);
#693=ORIENTED_EDGE('',*,*,#493,.T.);
#694=ORIENTED_EDGE('',*,*,#410,.F.);
#695=ORIENTED_EDGE('',*,*,#407,.T.);
#696=ORIENTED_EDGE('',*,*,#497,.F.);
#697=ORIENTED_EDGE('',*,*,#451,.T.);
#698=ORIENTED_EDGE('',*,*,#455,.T.);
#699=ORIENTED_EDGE('',*,*,#443,.T.);
#700=ORIENTED_EDGE('',*,*,#498,.T.);
#701=ORIENTED_EDGE('',*,*,#466,.T.);
#702=ORIENTED_EDGE('',*,*,#468,.T.);
#703=ORIENTED_EDGE('',*,*,#456,.T.);
#704=ORIENTED_EDGE('',*,*,#463,.T.);
#705=ORIENTED_EDGE('',*,*,#460,.T.);
#706=ORIENTED_EDGE('',*,*,#416,.T.);
#707=ORIENTED_EDGE('',*,*,#449,.T.);
#708=ORIENTED_EDGE('',*,*,#454,.T.);
#709=CYLINDRICAL_SURFACE('',#768,0.5085);
#710=CYLINDRICAL_SURFACE('',#771,0.5085);
#711=CYLINDRICAL_SURFACE('',#781,0.5085);
#712=CYLINDRICAL_SURFACE('',#784,0.5085);
#713=CYLINDRICAL_SURFACE('',#789,0.5085);
#714=CYLINDRICAL_SURFACE('',#791,0.5085);
#715=CYLINDRICAL_SURFACE('',#796,0.5085);
#716=CYLINDRICAL_SURFACE('',#799,0.5085);
#717=ADVANCED_FACE('',(#50),#709,.F.);
#718=ADVANCED_FACE('',(#51),#710,.F.);
#719=ADVANCED_FACE('',(#52),#21,.F.);
#720=ADVANCED_FACE('',(#53),#22,.F.);
#721=ADVANCED_FACE('',(#54),#23,.F.);
#722=ADVANCED_FACE('',(#55,#15,#16,#17),#24,.F.);
#723=ADVANCED_FACE('',(#56),#711,.F.);
#724=ADVANCED_FACE('',(#57),#712,.F.);
#725=ADVANCED_FACE('',(#58),#25,.F.);
#726=ADVANCED_FACE('',(#59),#26,.F.);
#727=ADVANCED_FACE('',(#60),#27,.F.);
#728=ADVANCED_FACE('',(#61),#713,.F.);
#729=ADVANCED_FACE('',(#62),#714,.F.);
#730=ADVANCED_FACE('',(#63),#28,.F.);
#731=ADVANCED_FACE('',(#64),#29,.F.);
#732=ADVANCED_FACE('',(#65),#715,.F.);
#733=ADVANCED_FACE('',(#66),#716,.F.);
#734=ADVANCED_FACE('',(#67),#30,.F.);
#735=ADVANCED_FACE('',(#68),#31,.F.);
#736=ADVANCED_FACE('',(#69),#32,.F.);
#737=ADVANCED_FACE('',(#70),#33,.F.);
#738=ADVANCED_FACE('',(#71),#34,.T.);
#739=ADVANCED_FACE('',(#72),#35,.T.);
#740=ADVANCED_FACE('',(#73),#36,.T.);
#741=ADVANCED_FACE('',(#74),#37,.F.);
#742=ADVANCED_FACE('',(#75),#38,.T.);
#743=ADVANCED_FACE('',(#76),#39,.T.);
#744=ADVANCED_FACE('',(#77),#40,.T.);
#745=ADVANCED_FACE('',(#78),#41,.F.);
#746=ADVANCED_FACE('',(#79),#42,.T.);
#747=ADVANCED_FACE('',(#80),#43,.T.);
#748=ADVANCED_FACE('',(#81),#44,.T.);
#749=ADVANCED_FACE('',(#82),#45,.F.);
#750=ADVANCED_FACE('',(#83),#46,.F.);
#751=ADVANCED_FACE('',(#84,#18,#19,#20),#47,.F.);
#752=ADVANCED_FACE('',(#85),#48,.T.);
#753=ADVANCED_FACE('',(#86),#49,.T.);
#754=CLOSED_SHELL('',(#717,#718,#719,#720,#721,#722,#723,#724,#725,#726,
#727,#728,#729,#730,#731,#732,#733,#734,#735,#736,#737,#738,#739,#740,#741,
#742,#743,#744,#745,#746,#747,#748,#749,#750,#751,#752,#753));
#755=DERIVED_UNIT_ELEMENT(#757,1.);
#756=DERIVED_UNIT_ELEMENT(#1236,-3.);
#757=(
MASS_UNIT()
NAMED_UNIT(*)
SI_UNIT(.KILO.,.GRAM.)
);
#758=DERIVED_UNIT((#755,#756));
#759=MEASURE_REPRESENTATION_ITEM('density measure',
POSITIVE_RATIO_MEASURE(7850.),#758);
#760=PROPERTY_DEFINITION_REPRESENTATION(#765,#762);
#761=PROPERTY_DEFINITION_REPRESENTATION(#766,#763);
#762=REPRESENTATION('material name',(#764),#1233);
#763=REPRESENTATION('density',(#759),#1233);
#764=DESCRIPTIVE_REPRESENTATION_ITEM('Steel','Steel');
#765=PROPERTY_DEFINITION('material property','material name',#1243);
#766=PROPERTY_DEFINITION('material property','density of part',#1243);
#767=AXIS2_PLACEMENT_3D('',#1018,#821,#822);
#768=AXIS2_PLACEMENT_3D('',#1019,#823,#824);
#769=AXIS2_PLACEMENT_3D('',#1024,#826,#827);
#770=AXIS2_PLACEMENT_3D('',#1027,#829,#830);
#771=AXIS2_PLACEMENT_3D('',#1028,#831,#832);
#772=AXIS2_PLACEMENT_3D('',#1033,#834,#835);
#773=AXIS2_PLACEMENT_3D('',#1036,#837,#838);
#774=AXIS2_PLACEMENT_3D('',#1037,#839,#840);
#775=AXIS2_PLACEMENT_3D('',#1040,#843,#844);
#776=AXIS2_PLACEMENT_3D('',#1050,#850,#851);
#777=AXIS2_PLACEMENT_3D('',#1052,#853,#854);
#778=AXIS2_PLACEMENT_3D('',#1060,#858,#859);
#779=AXIS2_PLACEMENT_3D('',#1064,#861,#862);
#780=AXIS2_PLACEMENT_3D('',#1068,#864,#865);
#781=AXIS2_PLACEMENT_3D('',#1094,#879,#880);
#782=AXIS2_PLACEMENT_3D('',#1099,#882,#883);
#783=AXIS2_PLACEMENT_3D('',#1102,#885,#886);
#784=AXIS2_PLACEMENT_3D('',#1103,#887,#888);
#785=AXIS2_PLACEMENT_3D('',#1107,#890,#891);
#786=AXIS2_PLACEMENT_3D('',#1109,#893,#894);
#787=AXIS2_PLACEMENT_3D('',#1112,#897,#898);
#788=AXIS2_PLACEMENT_3D('',#1128,#907,#908);
#789=AXIS2_PLACEMENT_3D('',#1130,#910,#911);
#790=AXIS2_PLACEMENT_3D('',#1133,#913,#914);
#791=AXIS2_PLACEMENT_3D('',#1134,#915,#916);
#792=AXIS2_PLACEMENT_3D('',#1138,#918,#919);
#793=AXIS2_PLACEMENT_3D('',#1139,#920,#921);
#794=AXIS2_PLACEMENT_3D('',#1140,#922,#923);
#795=AXIS2_PLACEMENT_3D('',#1142,#925,#926);
#796=AXIS2_PLACEMENT_3D('',#1144,#928,#929);
#797=AXIS2_PLACEMENT_3D('',#1149,#931,#932);
#798=AXIS2_PLACEMENT_3D('',#1152,#934,#935);
#799=AXIS2_PLACEMENT_3D('',#1153,#936,#937);
#800=AXIS2_PLACEMENT_3D('',#1157,#939,#940);
#801=AXIS2_PLACEMENT_3D('',#1159,#942,#943);
#802=AXIS2_PLACEMENT_3D('',#1162,#946,#947);
#803=AXIS2_PLACEMENT_3D('',#1168,#951,#952);
#804=AXIS2_PLACEMENT_3D('',#1170,#954,#955);
#805=AXIS2_PLACEMENT_3D('',#1176,#959,#960);
#806=AXIS2_PLACEMENT_3D('',#1180,#963,#964);
#807=AXIS2_PLACEMENT_3D('',#1184,#967,#968);
#808=AXIS2_PLACEMENT_3D('',#1186,#970,#971);
#809=AXIS2_PLACEMENT_3D('',#1192,#975,#976);
#810=AXIS2_PLACEMENT_3D('',#1196,#979,#980);
#811=AXIS2_PLACEMENT_3D('',#1200,#983,#984);
#812=AXIS2_PLACEMENT_3D('',#1202,#986,#987);
#813=AXIS2_PLACEMENT_3D('',#1208,#991,#992);
#814=AXIS2_PLACEMENT_3D('',#1212,#995,#996);
#815=AXIS2_PLACEMENT_3D('',#1216,#999,#1000);
#816=AXIS2_PLACEMENT_3D('',#1218,#1002,#1003);
#817=AXIS2_PLACEMENT_3D('',#1224,#1007,#1008);
#818=AXIS2_PLACEMENT_3D('',#1226,#1010,#1011);
#819=AXIS2_PLACEMENT_3D('',#1229,#1014,#1015);
#820=AXIS2_PLACEMENT_3D('',#1230,#1016,#1017);
#821=DIRECTION('axis',(0.,0.,1.));
#822=DIRECTION('refdir',(1.,0.,0.));
#823=DIRECTION('center_axis',(-1.07808881655975E-16,2.23288757292772E-16,
1.));
#824=DIRECTION('ref_axis',(6.12323399573677E-17,-1.,2.20807384904145E-16));
#825=DIRECTION('',(-1.07808881655975E-16,2.23288757292772E-16,1.));
#826=DIRECTION('center_axis',(-5.67503328910963E-33,2.24468148300805E-16,
1.));
#827=DIRECTION('ref_axis',(6.12323399573677E-17,-1.,2.20807384904145E-16));
#828=DIRECTION('',(1.07808881655975E-16,-2.23288757292772E-16,-1.));
#829=DIRECTION('center_axis',(-2.39874342139573E-16,2.20807384904145E-16,
1.));
#830=DIRECTION('ref_axis',(6.12323399573677E-17,-1.,2.20807384904145E-16));
#831=DIRECTION('center_axis',(-1.07808881655975E-16,2.23288757292772E-16,
1.));
#832=DIRECTION('ref_axis',(6.12323399573677E-17,-1.,2.20807384904145E-16));
#833=DIRECTION('',(1.07808881655975E-16,-2.23288757292772E-16,-1.));
#834=DIRECTION('center_axis',(-2.39874342139573E-16,2.20807384904145E-16,
1.));
#835=DIRECTION('ref_axis',(6.12323399573677E-17,-1.,2.20807384904145E-16));
#836=DIRECTION('',(-1.07808881655975E-16,2.23288757292772E-16,1.));
#837=DIRECTION('center_axis',(-5.67503328910963E-33,2.24468148300805E-16,
1.));
#838=DIRECTION('ref_axis',(6.12323399573677E-17,-1.,2.20807384904145E-16));
#839=DIRECTION('center_axis',(-2.39874342139573E-16,2.20807384904145E-16,
1.));
#840=DIRECTION('ref_axis',(1.,0.,2.39874342139573E-16));
#841=DIRECTION('',(2.44929359829471E-16,-1.,2.20807384904145E-16));
#842=DIRECTION('',(-1.,-2.44995131786894E-16,-2.39874342139573E-16));
#843=DIRECTION('center_axis',(2.44995131786894E-16,-1.,5.18205690365926E-16));
#844=DIRECTION('ref_axis',(0.,-5.18205690365926E-16,-1.));
#845=DIRECTION('',(1.,2.44995131786894E-16,-4.93185702858062E-32));
#846=DIRECTION('',(5.29680781368453E-32,-5.18205690365926E-16,-1.));
#847=DIRECTION('',(-1.,-2.44995131786894E-16,4.93185702858062E-32));
#848=DIRECTION('',(-5.32668538727334E-32,5.18205690365926E-16,1.));
#849=DIRECTION('',(1.,2.44995131786894E-16,-4.93185702858062E-32));
#850=DIRECTION('center_axis',(-5.67503328910963E-33,2.24468148300805E-16,
1.));
#851=DIRECTION('ref_axis',(1.,0.,5.67503328910963E-33));
#852=DIRECTION('',(-2.44929359829471E-16,1.,-2.29961513285892E-16));
#853=DIRECTION('center_axis',(-5.67503328910963E-33,2.24468148300805E-16,
1.));
#854=DIRECTION('ref_axis',(1.,0.,5.67503328910963E-33));
#855=DIRECTION('',(-2.44863605529338E-16,1.,-2.24468148300805E-16));
#856=DIRECTION('',(0.622043584205496,0.782982617526583,-1.7575465830791E-16));
#857=DIRECTION('',(-1.,-2.44929359829471E-16,4.93038065763132E-32));
#858=DIRECTION('center_axis',(-5.67503328910963E-33,2.24468148300805E-16,
1.));
#859=DIRECTION('ref_axis',(-1.,-1.22464679914735E-16,4.90290885455701E-32));
#860=DIRECTION('',(-2.44929359829471E-16,1.,-2.29961513285892E-16));
#861=DIRECTION('center_axis',(-5.67503328910963E-33,2.24468148300805E-16,
1.));
#862=DIRECTION('ref_axis',(-1.83697019872103E-16,1.,-2.20807384904145E-16));
#863=DIRECTION('',(1.,2.44929359829471E-16,-4.93038065763132E-32));
#864=DIRECTION('center_axis',(-5.67503328910963E-33,2.24468148300805E-16,
1.));
#865=DIRECTION('ref_axis',(1.,2.44929359829471E-16,-4.90290885455701E-32));
#866=DIRECTION('',(-2.44929359829471E-16,1.,-2.29961513285892E-16));
#867=DIRECTION('',(-1.,-2.44964324021321E-16,4.93116549237147E-32));
#868=DIRECTION('',(2.44894400628121E-16,-1.,2.24468148300805E-16));
#869=DIRECTION('',(1.,2.44964324021321E-16,-4.93116549237147E-32));
#870=DIRECTION('',(-2.44894400628121E-16,1.,-2.24468148300805E-16));
#871=DIRECTION('',(-1.,-2.44417877254804E-16,4.91889950298896E-32));
#872=DIRECTION('',(2.45441912761294E-16,-1.,2.24468148300805E-16));
#873=DIRECTION('',(1.,2.44417877254804E-16,-4.91889950298896E-32));
#874=DIRECTION('',(-2.45441912761294E-16,1.,-2.24468148300805E-16));
#875=DIRECTION('',(-1.,-2.45999531233472E-16,4.95440259697339E-32));
#876=DIRECTION('',(2.43863843990576E-16,-1.,2.24468148300805E-16));
#877=DIRECTION('',(1.,2.45999531233472E-16,-4.95440259697339E-32));
#878=DIRECTION('',(-2.43863843990576E-16,1.,-2.24468148300805E-16));
#879=DIRECTION('center_axis',(-3.54378578908209E-32,3.31097638948747E-16,
1.));
#880=DIRECTION('ref_axis',(-1.,-1.22464679914735E-16,4.90290885455701E-32));
#881=DIRECTION('',(-3.54378578908209E-32,3.31097638948747E-16,1.));
#882=DIRECTION('center_axis',(-5.67503328910963E-33,2.24468148300805E-16,
1.));
#883=DIRECTION('ref_axis',(-1.,-1.22464679914735E-16,4.90290885455701E-32));
#884=DIRECTION('',(3.54378578908209E-32,-3.31097638948747E-16,-1.));
#885=DIRECTION('center_axis',(-7.38815169940625E-33,4.60681727043718E-16,
1.));
#886=DIRECTION('ref_axis',(-1.,-1.22464679914735E-16,4.90290885455701E-32));
#887=DIRECTION('center_axis',(-3.54378578908209E-32,3.31097638948747E-16,
1.));
#888=DIRECTION('ref_axis',(-1.,-1.22464679914735E-16,4.90290885455701E-32));
#889=DIRECTION('',(3.54378578908209E-32,-3.31097638948747E-16,-1.));
#890=DIRECTION('center_axis',(-7.38815169940625E-33,4.60681727043718E-16,
1.));
#891=DIRECTION('ref_axis',(-1.,-1.22464679914735E-16,4.90290885455701E-32));
#892=DIRECTION('',(-3.54378578908209E-32,3.31097638948747E-16,1.));
#893=DIRECTION('center_axis',(-7.38815169940625E-33,4.60681727043718E-16,
1.));
#894=DIRECTION('ref_axis',(1.,0.,7.38815169940625E-33));
#895=DIRECTION('',(-1.,-2.44929359829471E-16,1.05446328790547E-31));
#896=DIRECTION('',(-2.44929359829471E-16,1.,-4.60681727043718E-16));
#897=DIRECTION('center_axis',(-1.,-2.44929359829471E-16,7.39557098644699E-32));
#898=DIRECTION('ref_axis',(7.39557098644699E-32,0.,1.));
#899=DIRECTION('',(-2.44929359829471E-16,1.,-2.29961513285892E-16));
#900=DIRECTION('',(9.64265822755135E-32,-6.95638498621032E-16,-1.));
#901=DIRECTION('',(-2.44929359829471E-16,1.,-2.24468148300805E-16));
#902=DIRECTION('',(-3.59353227133626E-31,1.76911799099864E-15,1.));
#903=DIRECTION('',(-2.44929359829471E-16,1.,-2.29961513285892E-16));
#904=DIRECTION('',(1.07808881655975E-16,2.23288757292772E-16,1.));
#905=DIRECTION('',(-2.44929359829471E-16,1.,-2.20807384904145E-16));
#906=DIRECTION('',(-1.07808881655975E-16,-2.23288757292772E-16,-1.));
#907=DIRECTION('center_axis',(-5.67503328910963E-33,2.24468148300805E-16,
1.));
#908=DIRECTION('ref_axis',(1.,0.,5.67503328910963E-33));
#909=DIRECTION('',(-1.,-2.44929359829471E-16,4.93038065763132E-32));
#910=DIRECTION('center_axis',(1.07808881655975E-16,2.23288757292772E-16,
1.));
#911=DIRECTION('ref_axis',(-1.83697019872103E-16,1.,-2.20807384904145E-16));
#912=DIRECTION('',(1.07808881655975E-16,2.23288757292772E-16,1.));
#913=DIRECTION('center_axis',(2.39874342139573E-16,2.20807384904145E-16,
1.));
#914=DIRECTION('ref_axis',(-1.83697019872103E-16,1.,-2.20807384904145E-16));
#915=DIRECTION('center_axis',(1.07808881655975E-16,2.23288757292772E-16,
1.));
#916=DIRECTION('ref_axis',(-1.83697019872103E-16,1.,-2.20807384904145E-16));
#917=DIRECTION('',(-1.07808881655975E-16,-2.23288757292772E-16,-1.));
#918=DIRECTION('center_axis',(2.39874342139573E-16,2.20807384904145E-16,
1.));
#919=DIRECTION('ref_axis',(-1.83697019872103E-16,1.,-2.20807384904145E-16));
#920=DIRECTION('center_axis',(-5.67503328910963E-33,2.24468148300805E-16,
1.));
#921=DIRECTION('ref_axis',(-1.83697019872103E-16,1.,-2.20807384904145E-16));
#922=DIRECTION('center_axis',(2.39874342139573E-16,2.20807384904145E-16,
1.));
#923=DIRECTION('ref_axis',(1.,0.,-2.39874342139573E-16));
#924=DIRECTION('',(1.,2.4492935982947E-16,-2.39874342139573E-16));
#925=DIRECTION('center_axis',(-5.67503328910963E-33,2.24468148300805E-16,
1.));
#926=DIRECTION('ref_axis',(1.,0.,5.67503328910963E-33));
#927=DIRECTION('',(1.,2.44929359829471E-16,-4.93038065763132E-32));
#928=DIRECTION('center_axis',(4.60856838330045E-32,1.15479875636797E-16,
1.));
#929=DIRECTION('ref_axis',(1.,2.44929359829471E-16,-4.90290885455701E-32));
#930=DIRECTION('',(4.60856838330045E-32,1.15479875636797E-16,1.));
#931=DIRECTION('center_axis',(-5.67503328910963E-33,2.24468148300805E-16,
1.));
#932=DIRECTION('ref_axis',(1.,2.44929359829471E-16,-4.90290885455701E-32));
#933=DIRECTION('',(-4.60856838330045E-32,-1.15479875636797E-16,-1.));
#934=DIRECTION('center_axis',(5.36991461751395E-32,-1.90669572354286E-17,
1.));
#935=DIRECTION('ref_axis',(1.,2.44929359829471E-16,-4.90290885455701E-32));
#936=DIRECTION('center_axis',(4.60856838330045E-32,1.15479875636797E-16,
1.));
#937=DIRECTION('ref_axis',(1.,2.44929359829471E-16,-4.90290885455701E-32));
#938=DIRECTION('',(-4.60856838330045E-32,-1.15479875636797E-16,-1.));
#939=DIRECTION('center_axis',(5.36991461751395E-32,-1.90669572354286E-17,
1.));
#940=DIRECTION('ref_axis',(1.,2.44929359829471E-16,-4.90290885455701E-32));
#941=DIRECTION('',(4.60856838330045E-32,1.15479875636797E-16,1.));
#942=DIRECTION('center_axis',(5.36991461751395E-32,-1.90669572354286E-17,
1.));
#943=DIRECTION('ref_axis',(1.,0.,-5.36991461751395E-32));
#944=DIRECTION('',(1.,2.44929359829471E-16,-4.90290885455701E-32));
#945=DIRECTION('',(2.44929359829471E-16,-1.,-1.90669572354286E-17));
#946=DIRECTION('center_axis',(1.,2.44929359829471E-16,-7.39557098644699E-32));
#947=DIRECTION('ref_axis',(-7.39557098644699E-32,0.,-1.));
#948=DIRECTION('',(-2.44929359829471E-16,1.,-2.29961513285892E-16));
#949=DIRECTION('',(3.59353227133626E-31,-1.76911799099864E-15,-1.));
#950=DIRECTION('',(-2.44929359829471E-16,1.,-2.29961513285892E-16));
#951=DIRECTION('center_axis',(-5.67503328910963E-33,2.24468148300805E-16,
1.));
#952=DIRECTION('ref_axis',(1.,0.,5.67503328910963E-33));
#953=DIRECTION('',(1.,2.44929359829471E-16,-4.93038065763132E-32));
#954=DIRECTION('center_axis',(2.45999531233472E-16,-1.,2.33692175923778E-16));
#955=DIRECTION('ref_axis',(0.,-2.33692175923778E-16,-1.));
#956=DIRECTION('',(-1.,-2.45999531233472E-16,4.95440259697339E-32));
#957=DIRECTION('',(1.69397194049908E-32,2.33692175923778E-16,1.));
#958=DIRECTION('',(-1.69397194049908E-32,-2.33692175923778E-16,-1.));
#959=DIRECTION('center_axis',(1.,2.43863843990576E-16,-7.39287917362853E-32));
#960=DIRECTION('ref_axis',(-7.39287917362853E-32,0.,-1.));
#961=DIRECTION('',(-2.43863843990576E-16,1.,-2.24468148300805E-16));
#962=DIRECTION('',(1.69397194049908E-32,2.33692175923778E-16,1.));
#963=DIRECTION('center_axis',(2.45999531233472E-16,-1.,2.33692175923778E-16));
#964=DIRECTION('ref_axis',(0.,-2.33692175923778E-16,-1.));
#965=DIRECTION('',(1.,2.45999531233472E-16,-4.95440259697339E-32));
#966=DIRECTION('',(-1.69397194049908E-32,-2.33692175923778E-16,-1.));
#967=DIRECTION('center_axis',(-1.,-2.43863843990576E-16,7.39287917362853E-32));
#968=DIRECTION('ref_axis',(7.39287917362853E-32,0.,1.));
#969=DIRECTION('',(2.43863843990576E-16,-1.,2.24468148300805E-16));
#970=DIRECTION('center_axis',(2.44417877254804E-16,-1.,2.92429398301791E-16));
#971=DIRECTION('ref_axis',(0.,-2.92429398301791E-16,-1.));
#972=DIRECTION('',(-1.,-2.44417877254804E-16,4.91889950298896E-32));
#973=DIRECTION('',(2.32783325109291E-33,2.92429398301791E-16,1.));
#974=DIRECTION('',(-2.32783325109291E-33,-2.92429398301791E-16,-1.));
#975=DIRECTION('center_axis',(1.,2.45441912761294E-16,-7.4102264117919E-32));
#976=DIRECTION('ref_axis',(-7.4102264117919E-32,0.,-1.));
#977=DIRECTION('',(-2.45441912761294E-16,1.,-2.24468148300805E-16));
#978=DIRECTION('',(2.32783325109291E-33,2.92429398301791E-16,1.));
#979=DIRECTION('center_axis',(2.44417877254804E-16,-1.,2.92429398301791E-16));
#980=DIRECTION('ref_axis',(0.,-2.92429398301791E-16,-1.));
#981=DIRECTION('',(1.,2.44417877254804E-16,-4.91889950298896E-32));
#982=DIRECTION('',(-2.32783325109291E-33,-2.92429398301791E-16,-1.));
#983=DIRECTION('center_axis',(-1.,-2.45441912761294E-16,7.4102264117919E-32));
#984=DIRECTION('ref_axis',(7.4102264117919E-32,0.,1.));
#985=DIRECTION('',(2.45441912761294E-16,-1.,2.24468148300805E-16));
#986=DIRECTION('center_axis',(2.44964324021321E-16,-1.,3.4130639357027E-16));
#987=DIRECTION('ref_axis',(0.,-3.4130639357027E-16,-1.));
#988=DIRECTION('',(-1.,-2.44964324021321E-16,4.93116549237147E-32));
#989=DIRECTION('',(-9.6694655211744E-33,3.4130639357027E-16,1.));
#990=DIRECTION('',(9.6694655211744E-33,-3.4130639357027E-16,-1.));
#991=DIRECTION('center_axis',(1.,2.44894400628121E-16,-7.39145591627625E-32));
#992=DIRECTION('ref_axis',(-7.39145591627625E-32,0.,-1.));
#993=DIRECTION('',(-2.44894400628121E-16,1.,-2.24468148300805E-16));
#994=DIRECTION('',(-9.6694655211744E-33,3.4130639357027E-16,1.));
#995=DIRECTION('center_axis',(2.44964324021321E-16,-1.,3.4130639357027E-16));
#996=DIRECTION('ref_axis',(0.,-3.4130639357027E-16,-1.));
#997=DIRECTION('',(1.,2.44964324021321E-16,-4.93116549237147E-32));
#998=DIRECTION('',(9.6694655211744E-33,-3.4130639357027E-16,-1.));
#999=DIRECTION('center_axis',(-1.,-2.44894400628121E-16,7.39145591627625E-32));
#1000=DIRECTION('ref_axis',(7.39145591627625E-32,0.,1.));
#1001=DIRECTION('',(2.44894400628121E-16,-1.,2.24468148300805E-16));
#1002=DIRECTION('center_axis',(0.782982617526583,-0.622043584205496,7.21976021912788E-16));
#1003=DIRECTION('ref_axis',(9.22084355069704E-16,0.,-1.));
#1004=DIRECTION('',(2.10578531023383E-31,-1.16065182608535E-15,-1.));
#1005=DIRECTION('',(-0.622043584205496,-0.782982617526583,1.7575465830791E-16));
#1006=DIRECTION('',(-3.69431645664101E-16,6.95638498621032E-16,1.));
#1007=DIRECTION('center_axis',(2.44929359829471E-16,-1.,6.95638498621032E-16));
#1008=DIRECTION('ref_axis',(0.,-6.95638498621032E-16,-1.));
#1009=DIRECTION('',(1.,2.44929359829471E-16,-4.93038065763132E-32));
#1010=DIRECTION('center_axis',(5.67503328910963E-33,-2.24468148300805E-16,
-1.));
#1011=DIRECTION('ref_axis',(-1.,0.,-5.67503328910963E-33));
#1012=DIRECTION('',(2.44863605529338E-16,-1.,2.24468148300805E-16));
#1013=DIRECTION('',(-1.,-2.44929359829471E-16,4.93038065763132E-32));
#1014=DIRECTION('center_axis',(-1.,-2.44863605529338E-16,7.36228598760871E-32));
#1015=DIRECTION('ref_axis',(7.36228598760871E-32,0.,1.));
#1016=DIRECTION('center_axis',(2.44929359829471E-16,-1.,1.76911799099864E-15));
#1017=DIRECTION('ref_axis',(0.,-1.76911799099864E-15,-1.));
#1018=CARTESIAN_POINT('',(0.,0.,0.));
#1019=CARTESIAN_POINT('Origin',(-86.5,73.03,-0.00849999999999354));
#1020=CARTESIAN_POINT('',(-87.,73.1225864460922,-3.81469761195907E-7));
#1021=CARTESIAN_POINT('',(-87.,73.1225864460921,1.50850000000001));
#1022=CARTESIAN_POINT('',(-87.,73.1225864460921,-0.00849999999999361));
#1023=CARTESIAN_POINT('',(-86.6255774163615,73.52275,-3.81469761445707E-7));
#1024=CARTESIAN_POINT('Origin',(-86.5,73.03,-3.81469765851905E-7));
#1025=CARTESIAN_POINT('',(-86.6255774163614,73.52275,1.50850000000001));
#1026=CARTESIAN_POINT('',(-86.6255774163614,73.52275,-0.00849999999999367));
#1027=CARTESIAN_POINT('Origin',(-86.5,73.03,1.50850000000001));
#1028=CARTESIAN_POINT('Origin',(-86.5,73.03,-0.00849999999999354));
#1029=CARTESIAN_POINT('',(-87.,72.9374135539079,1.50850000000001));
#1030=CARTESIAN_POINT('',(-87.,72.9374135539078,-3.81469761152539E-7));
#1031=CARTESIAN_POINT('',(-87.,72.9374135539079,-0.00849999999999356));
#1032=CARTESIAN_POINT('',(-86.3744225836386,73.52275,1.50850000000001));
#1033=CARTESIAN_POINT('Origin',(-86.5,73.03,1.50850000000001));
#1034=CARTESIAN_POINT('',(-86.3744225836385,73.52275,-3.81469761445707E-7));
#1035=CARTESIAN_POINT('',(-86.3744225836386,73.52275,-0.00849999999999364));
#1036=CARTESIAN_POINT('Origin',(-86.5,73.03,-3.81469765851905E-7));
#1037=CARTESIAN_POINT('Origin',(-86.5,73.03,1.50850000000001));
#1038=CARTESIAN_POINT('',(-87.,60.6478125,1.50850000000001));
#1039=CARTESIAN_POINT('',(-81.6309523809524,73.52275,1.50850000000001));
#1040=CARTESIAN_POINT('Origin',(-76.7619047619048,73.52275,1.58730115777566));
#1041=CARTESIAN_POINT('',(-87.,73.52275,-3.81469761286643E-7));
#1042=CARTESIAN_POINT('',(-60.3809523809524,73.52275,-3.81469761445707E-7));
#1043=CARTESIAN_POINT('',(-87.,73.52275,1.99999955797947));
#1044=CARTESIAN_POINT('',(-87.,73.52275,1.29365037301526));
#1045=CARTESIAN_POINT('',(-66.5153095238095,73.52275,1.99999955797947));
#1046=CARTESIAN_POINT('',(-60.3809523809524,73.52275,1.99999955797947));
#1047=CARTESIAN_POINT('',(-66.5153095238095,73.52275,-3.8146976155673E-7));
#1048=CARTESIAN_POINT('',(-66.5153095238095,73.52275,1.58730115777566));
#1049=CARTESIAN_POINT('',(-60.3809523809524,73.52275,-3.81469761445707E-7));
#1050=CARTESIAN_POINT('Origin',(-44.,48.265625,-3.81469755739735E-7));
#1051=CARTESIAN_POINT('',(-87.,81.265625,-3.81469763067207E-7));
#1052=CARTESIAN_POINT('Origin',(-44.,48.265625,-3.81469755739735E-7));
#1053=CARTESIAN_POINT('',(-66.5153095238095,73.5441483470545,-3.81469761417805E-7));
#1054=CARTESIAN_POINT('',(-66.5153095238095,64.765625,-3.81469759447306E-7));
#1055=CARTESIAN_POINT('',(-54.2363480961374,88.9999999999999,-3.81469764845815E-7));
#1056=CARTESIAN_POINT('',(-68.3237363462696,71.267833948822,-3.81469760901872E-7));
#1057=CARTESIAN_POINT('',(-1.59258644609258,88.9999999999999,-3.81469764845765E-7));
#1058=CARTESIAN_POINT('',(-44.0000000000001,88.9999999999999,-3.81469764845815E-7));
#1059=CARTESIAN_POINT('',(-1.0000000000001,88.4074135539072,-3.81469764710457E-7));
#1060=CARTESIAN_POINT('Origin',(-1.50000000000001,88.5,-3.81469769061143E-7));
#1061=CARTESIAN_POINT('',(-1.00000000000009,23.5925864460927,-3.81469749805713E-7));
#1062=CARTESIAN_POINT('',(-1.0000000000001,81.265625,-3.81469763067207E-7));
#1063=CARTESIAN_POINT('',(-1.59258644609224,23.,-3.81469750067656E-7));
#1064=CARTESIAN_POINT('Origin',(-1.5,23.5,-3.81469754793043E-7));
#1065=CARTESIAN_POINT('',(-86.4074135539077,23.,-3.81469750067656E-7));
#1066=CARTESIAN_POINT('',(-44.,23.,-3.81469750068407E-7));
#1067=CARTESIAN_POINT('',(-87.,23.5925864460922,-3.81469749805713E-7));
#1068=CARTESIAN_POINT('Origin',(-86.5,23.5,-3.81469752879643E-7));
#1069=CARTESIAN_POINT('',(-87.,81.265625,-3.81469763067207E-7));
#1070=CARTESIAN_POINT('',(-4.3415,71.4085,-3.81469760668551E-7));
#1071=CARTESIAN_POINT('',(-62.3585,71.4085,-3.81469760668551E-7));
#1072=CARTESIAN_POINT('',(-38.675,71.4085,-3.81469760668551E-7));
#1073=CARTESIAN_POINT('',(-62.3585,32.3915,-3.81469751786767E-7));
#1074=CARTESIAN_POINT('',(-62.3585,50.0828125,-3.81469755339481E-7));
#1075=CARTESIAN_POINT('',(-4.3415,32.3915,-3.81469751786767E-7));
#1076=CARTESIAN_POINT('',(-38.675,32.3915,-3.81469751786767E-7));
#1077=CARTESIAN_POINT('',(-4.3415,50.0828125,-3.81469755339481E-7));
#1078=CARTESIAN_POINT('',(-74.4915,59.3085,-3.81469758004016E-7));
#1079=CARTESIAN_POINT('',(-80.5085,59.3085,-3.81469758004016E-7));
#1080=CARTESIAN_POINT('',(-60.75,59.3085,-3.81469758448105E-7));
#1081=CARTESIAN_POINT('',(-80.5085,36.2915,-3.81469752674946E-7));
#1082=CARTESIAN_POINT('',(-80.5085,48.0328125,-3.8146975578357E-7));
#1083=CARTESIAN_POINT('',(-74.4915,36.2915,-3.81469752674946E-7));
#1084=CARTESIAN_POINT('',(-60.75,36.2915,-3.81469753119035E-7));
#1085=CARTESIAN_POINT('',(-74.4915,48.0328125,-3.8146975578357E-7));
#1086=CARTESIAN_POINT('',(-12.4915,83.2085,-3.81469763333087E-7));
#1087=CARTESIAN_POINT('',(-47.5085,83.2085,-3.81469763333087E-7));
#1088=CARTESIAN_POINT('',(-37.,83.2085,-3.81469763777176E-7));
#1089=CARTESIAN_POINT('',(-47.5085,79.6915,-3.81469762444908E-7));
#1090=CARTESIAN_POINT('',(-47.5085,64.8578125,-3.81469759336284E-7));
#1091=CARTESIAN_POINT('',(-12.4915,79.6915,-3.81469762444908E-7));
#1092=CARTESIAN_POINT('',(-37.,79.6915,-3.81469762888997E-7));
#1093=CARTESIAN_POINT('',(-12.4915,64.8578125,-3.81469759336284E-7));
#1094=CARTESIAN_POINT('Origin',(-1.50000000000001,88.5,-0.0084999999999969));
#1095=CARTESIAN_POINT('',(-1.40741355390745,88.9999999999999,-3.81469764845765E-7));
#1096=CARTESIAN_POINT('',(-1.40741355390745,88.9999999999999,1.5085));
#1097=CARTESIAN_POINT('',(-1.40741355390745,88.9999999999999,-0.00849999999999715));
#1098=CARTESIAN_POINT('',(-1.0000000000001,88.5925864460928,-3.8146976475209E-7));
#1099=CARTESIAN_POINT('Origin',(-1.50000000000001,88.5,-3.81469769061143E-7));
#1100=CARTESIAN_POINT('',(-1.00000000000003,88.5925864460924,1.5085));
#1101=CARTESIAN_POINT('',(-1.00000000000003,88.5925864460924,-0.00849999999999699));
#1102=CARTESIAN_POINT('Origin',(-1.50000000000001,88.5,1.5085));
#1103=CARTESIAN_POINT('Origin',(-1.50000000000001,88.5,-0.0084999999999969));
#1104=CARTESIAN_POINT('',(-1.59258644609258,88.9999999999999,1.5085));
#1105=CARTESIAN_POINT('',(-1.59258644609258,88.9999999999999,-0.00849999999999715));
#1106=CARTESIAN_POINT('',(-1.00000000000003,88.4074135539076,1.5085));
#1107=CARTESIAN_POINT('Origin',(-1.50000000000001,88.5,1.5085));
#1108=CARTESIAN_POINT('',(-1.00000000000003,88.4074135539076,-0.00849999999999692));
#1109=CARTESIAN_POINT('Origin',(-1.50000000000001,88.5,1.5085));
#1110=CARTESIAN_POINT('',(-22.75,88.9999999999999,1.5085));
#1111=CARTESIAN_POINT('',(-1.00000000000003,68.3828125,1.50850000000001));
#1112=CARTESIAN_POINT('Origin',(-1.00000000000002,48.265625,0.999999588254862));
#1113=CARTESIAN_POINT('',(-1.0000000000001,89.,-3.81469764845815E-7));
#1114=CARTESIAN_POINT('',(-1.0000000000001,81.265625,-3.81469763067207E-7));
#1115=CARTESIAN_POINT('',(-1.0000000000001,89.,1.99999955797947));
#1116=CARTESIAN_POINT('',(-1.0000000000001,89.,0.999999588254853));
#1117=CARTESIAN_POINT('',(-1.00000000000001,23.,1.99999955797948));
#1118=CARTESIAN_POINT('',(-1.00000000000002,48.265625,1.99999955797948));
#1119=CARTESIAN_POINT('',(-1.00000000000001,23.,-3.81469750068407E-7));
#1120=CARTESIAN_POINT('',(-1.00000000000001,23.,0.999999588254867));
#1121=CARTESIAN_POINT('',(-1.00000000000009,23.4074135539073,-3.81469749762345E-7));
#1122=CARTESIAN_POINT('',(-1.0000000000001,81.265625,-3.81469763067207E-7));
#1123=CARTESIAN_POINT('',(-1.00000000000002,23.4074135539076,1.50850000000002));
#1124=CARTESIAN_POINT('',(-1.00000000000002,23.4074135539076,-0.00849999999998254));
#1125=CARTESIAN_POINT('',(-1.00000000000002,23.5925864460924,1.50850000000002));
#1126=CARTESIAN_POINT('',(-1.00000000000002,35.8828125,1.50850000000002));
#1127=CARTESIAN_POINT('',(-1.00000000000002,23.5925864460924,-0.00849999999998258));
#1128=CARTESIAN_POINT('Origin',(-44.,48.265625,-3.81469755739735E-7));
#1129=CARTESIAN_POINT('',(-44.0000000000001,88.9999999999999,-3.81469764845815E-7));
#1130=CARTESIAN_POINT('Origin',(-1.5,23.5,-0.00849999999998253));
#1131=CARTESIAN_POINT('',(-1.59258644609226,23.,1.50850000000002));
#1132=CARTESIAN_POINT('',(-1.59258644609224,23.,-0.00849999999998247));
#1133=CARTESIAN_POINT('Origin',(-1.5,23.5,1.50850000000002));
#1134=CARTESIAN_POINT('Origin',(-1.5,23.5,-0.00849999999998253));
#1135=CARTESIAN_POINT('',(-1.40741355390774,23.,1.50850000000002));
#1136=CARTESIAN_POINT('',(-1.40741355390776,23.,-3.81469750067656E-7));
#1137=CARTESIAN_POINT('',(-1.40741355390776,23.,-0.00849999999998249));
#1138=CARTESIAN_POINT('Origin',(-1.5,23.5,1.50850000000002));
#1139=CARTESIAN_POINT('Origin',(-1.5,23.5,-3.81469754793043E-7));
#1140=CARTESIAN_POINT('Origin',(-1.5,23.5,1.50850000000002));
#1141=CARTESIAN_POINT('',(-22.75,23.,1.50850000000002));
#1142=CARTESIAN_POINT('Origin',(-44.,48.265625,-3.81469755739735E-7));
#1143=CARTESIAN_POINT('',(-44.,23.,-3.81469750068407E-7));
#1144=CARTESIAN_POINT('Origin',(-86.5,23.5,-0.00849999999998253));
#1145=CARTESIAN_POINT('',(-86.5925864460923,23.,-3.81469750067656E-7));
#1146=CARTESIAN_POINT('',(-86.5925864460923,23.,1.50850000000002));
#1147=CARTESIAN_POINT('',(-86.5925864460923,23.,-0.00849999999998255));
#1148=CARTESIAN_POINT('',(-87.,23.4074135539077,-3.81469749762345E-7));
#1149=CARTESIAN_POINT('Origin',(-86.5,23.5,-3.81469752879643E-7));
#1150=CARTESIAN_POINT('',(-87.,23.4074135539078,1.50850000000002));
#1151=CARTESIAN_POINT('',(-87.,23.4074135539078,-0.00849999999998253));
#1152=CARTESIAN_POINT('Origin',(-86.5,23.5,1.50850000000002));
#1153=CARTESIAN_POINT('Origin',(-86.5,23.5,-0.00849999999998253));
#1154=CARTESIAN_POINT('',(-86.4074135539077,23.,1.50850000000002));
#1155=CARTESIAN_POINT('',(-86.4074135539077,23.,-0.00849999999998255));
#1156=CARTESIAN_POINT('',(-87.,23.5925864460921,1.50850000000002));
#1157=CARTESIAN_POINT('Origin',(-86.5,23.5,1.50850000000002));
#1158=CARTESIAN_POINT('',(-87.,23.5925864460921,-0.00849999999998255));
#1159=CARTESIAN_POINT('Origin',(-86.5,23.5,1.50850000000002));
#1160=CARTESIAN_POINT('',(-65.25,23.,1.50850000000002));
#1161=CARTESIAN_POINT('',(-87.,35.8828125,1.50850000000002));
#1162=CARTESIAN_POINT('Origin',(-87.,48.265625,0.999999588254862));
#1163=CARTESIAN_POINT('',(-87.,23.,-3.81469750068407E-7));
#1164=CARTESIAN_POINT('',(-87.,81.265625,-3.81469763067207E-7));
#1165=CARTESIAN_POINT('',(-87.,23.,1.99999955797948));
#1166=CARTESIAN_POINT('',(-87.,23.,0.999999588254867));
#1167=CARTESIAN_POINT('',(-87.,81.265625,1.99999955797947));
#1168=CARTESIAN_POINT('Origin',(-44.,48.265625,-3.81469755739735E-7));
#1169=CARTESIAN_POINT('',(-44.,23.,-3.81469750068407E-7));
#1170=CARTESIAN_POINT('Origin',(-30.,79.6915,-4.60000038146967));
#1171=CARTESIAN_POINT('',(-12.4915,79.6915,1.99999955797947));
#1172=CARTESIAN_POINT('',(-47.5085,79.6915,1.99999955797947));
#1173=CARTESIAN_POINT('',(-37.,79.6915,1.99999955797947));
#1174=CARTESIAN_POINT('',(-12.4915,79.6915,-4.60000038146967));
#1175=CARTESIAN_POINT('',(-47.5085,79.6915,-4.60000038146967));
#1176=CARTESIAN_POINT('Origin',(-47.5085,81.45,-4.60000038146967));
#1177=CARTESIAN_POINT('',(-47.5085,83.2085,1.99999955797947));
#1178=CARTESIAN_POINT('',(-47.5085,64.8578125,1.99999955797948));
#1179=CARTESIAN_POINT('',(-47.5085,83.2085,-4.60000038146967));
#1180=CARTESIAN_POINT('Origin',(-30.,83.2085,-4.60000038146967));
#1181=CARTESIAN_POINT('',(-12.4915,83.2085,1.99999955797947));
#1182=CARTESIAN_POINT('',(-37.,83.2085,1.99999955797947));
#1183=CARTESIAN_POINT('',(-12.4915,83.2085,-4.60000038146967));
#1184=CARTESIAN_POINT('Origin',(-12.4915,81.45,-4.60000038146967));
#1185=CARTESIAN_POINT('',(-12.4915,64.8578125,1.99999955797948));
#1186=CARTESIAN_POINT('Origin',(-77.5,36.2915,-4.60000038146966));
#1187=CARTESIAN_POINT('',(-74.4915,36.2915,1.99999955797948));
#1188=CARTESIAN_POINT('',(-80.5085,36.2915,1.99999955797948));
#1189=CARTESIAN_POINT('',(-60.75,36.2915,1.99999955797948));
#1190=CARTESIAN_POINT('',(-74.4915,36.2915,-4.60000038146966));
#1191=CARTESIAN_POINT('',(-80.5085,36.2915,-4.60000038146966));
#1192=CARTESIAN_POINT('Origin',(-80.5085,47.8,-4.60000038146966));
#1193=CARTESIAN_POINT('',(-80.5085,59.3085,1.99999955797948));
#1194=CARTESIAN_POINT('',(-80.5085,48.0328125,1.99999955797948));
#1195=CARTESIAN_POINT('',(-80.5085,59.3085,-4.60000038146967));
#1196=CARTESIAN_POINT('Origin',(-77.5,59.3085,-4.60000038146967));
#1197=CARTESIAN_POINT('',(-74.4915,59.3085,1.99999955797948));
#1198=CARTESIAN_POINT('',(-60.75,59.3085,1.99999955797948));
#1199=CARTESIAN_POINT('',(-74.4915,59.3085,-4.60000038146967));
#1200=CARTESIAN_POINT('Origin',(-74.4915,47.8,-4.60000038146966));
#1201=CARTESIAN_POINT('',(-74.4915,48.0328125,1.99999955797948));
#1202=CARTESIAN_POINT('Origin',(-33.35,32.3915,9.99999961853026));
#1203=CARTESIAN_POINT('',(-4.3415,32.3915,1.99999955797948));
#1204=CARTESIAN_POINT('',(-62.3585,32.3915,1.99999955797948));
#1205=CARTESIAN_POINT('',(-38.675,32.3915,1.99999955797948));
#1206=CARTESIAN_POINT('',(-4.3415,32.3915,9.99999961853026));
#1207=CARTESIAN_POINT('',(-62.3585,32.3915,9.99999961853026));
#1208=CARTESIAN_POINT('Origin',(-62.3585,51.9,9.99999961853025));
#1209=CARTESIAN_POINT('',(-62.3585,71.4085,1.99999955797947));
#1210=CARTESIAN_POINT('',(-62.3585,50.0828125,1.99999955797948));
#1211=CARTESIAN_POINT('',(-62.3585,71.4085,9.99999961853024));
#1212=CARTESIAN_POINT('Origin',(-33.35,71.4085,9.99999961853024));
#1213=CARTESIAN_POINT('',(-4.3415,71.4085,1.99999955797947));
#1214=CARTESIAN_POINT('',(-38.675,71.4085,1.99999955797947));
#1215=CARTESIAN_POINT('',(-4.3415,71.4085,9.99999961853024));
#1216=CARTESIAN_POINT('Origin',(-4.3415,51.9,9.99999961853025));
#1217=CARTESIAN_POINT('',(-4.3415,50.0828125,1.99999955797948));
#1218=CARTESIAN_POINT('Origin',(-66.5323095238094,73.52275,-0.0085003814697619));
#1219=CARTESIAN_POINT('',(-66.5153095238095,73.5441483470545,1.99999955797947));
#1220=CARTESIAN_POINT('',(-66.5153095238095,73.5441483470545,0.789400388152954));
#1221=CARTESIAN_POINT('',(-54.2363480961374,88.9999999999999,1.99999955797947));
#1222=CARTESIAN_POINT('',(-68.3237363462696,71.267833948822,1.99999955797947));
#1223=CARTESIAN_POINT('',(-54.2363480961374,88.9999999999999,0.49574960339254));
#1224=CARTESIAN_POINT('Origin',(-44.0000000000001,88.9999999999999,0.999999588254853));
#1225=CARTESIAN_POINT('',(-44.0000000000001,88.9999999999999,1.99999955797947));
#1226=CARTESIAN_POINT('Origin',(-44.,48.265625,1.99999955797948));
#1227=CARTESIAN_POINT('',(-66.5153095238095,64.765625,1.99999955797948));
#1228=CARTESIAN_POINT('',(-44.,23.,1.99999955797948));
#1229=CARTESIAN_POINT('Origin',(-66.5153095238095,81.265625,1.58730115777566));
#1230=CARTESIAN_POINT('Origin',(-44.,23.,0.999999588254867));
#1231=UNCERTAINTY_MEASURE_WITH_UNIT(LENGTH_MEASURE(0.01),#1235,
'DISTANCE_ACCURACY_VALUE',
'Maximum model space distance between geometric entities at asserted c
onnectivities');
#1232=UNCERTAINTY_MEASURE_WITH_UNIT(LENGTH_MEASURE(0.01),#1235,
'DISTANCE_ACCURACY_VALUE',
'Maximum model space distance between geometric entities at asserted c
onnectivities');
#1233=(
GEOMETRIC_REPRESENTATION_CONTEXT(3)
GLOBAL_UNCERTAINTY_ASSIGNED_CONTEXT((#1231))
GLOBAL_UNIT_ASSIGNED_CONTEXT((#1235,#1237,#1238))
REPRESENTATION_CONTEXT('','3D')
);
#1234=(
GEOMETRIC_REPRESENTATION_CONTEXT(3)
GLOBAL_UNCERTAINTY_ASSIGNED_CONTEXT((#1232))
GLOBAL_UNIT_ASSIGNED_CONTEXT((#1235,#1237,#1238))
REPRESENTATION_CONTEXT('','3D')
);
#1235=(
LENGTH_UNIT()
NAMED_UNIT(*)
SI_UNIT(.MILLI.,.METRE.)
);
#1236=(
LENGTH_UNIT()
NAMED_UNIT(*)
SI_UNIT($,.METRE.)
);
#1237=(
NAMED_UNIT(*)
PLANE_ANGLE_UNIT()
SI_UNIT($,.RADIAN.)
);
#1238=(
NAMED_UNIT(*)
SI_UNIT($,.STERADIAN.)
SOLID_ANGLE_UNIT()
);
#1239=SHAPE_DEFINITION_REPRESENTATION(#1240,#1241);
#1240=PRODUCT_DEFINITION_SHAPE('',$,#1243);
#1241=SHAPE_REPRESENTATION('',(#767),#1233);
#1242=PRODUCT_DEFINITION_CONTEXT('part definition',#1247,'design');
#1243=PRODUCT_DEFINITION('FusionComponent','FusionComponent',#1244,#1242);
#1244=PRODUCT_DEFINITION_FORMATION('',$,#1249);
#1245=PRODUCT_RELATED_PRODUCT_CATEGORY('FusionComponent',
'FusionComponent',(#1249));
#1246=APPLICATION_PROTOCOL_DEFINITION('international standard',
'automotive_design',2009,#1247);
#1247=APPLICATION_CONTEXT(
'Core Data for Automotive Mechanical Design Process');
#1248=PRODUCT_CONTEXT('part definition',#1247,'mechanical');
#1249=PRODUCT('FusionComponent','FusionComponent',$,(#1248));
#1250=PRESENTATION_STYLE_ASSIGNMENT((#1252));
#1251=PRESENTATION_STYLE_ASSIGNMENT((#1253));
#1252=SURFACE_STYLE_USAGE(.BOTH.,#1254);
#1253=SURFACE_STYLE_USAGE(.BOTH.,#1255);
#1254=SURFACE_SIDE_STYLE('',(#1256));
#1255=SURFACE_SIDE_STYLE('',(#1257));
#1256=SURFACE_STYLE_FILL_AREA(#1258);
#1257=SURFACE_STYLE_FILL_AREA(#1259);
#1258=FILL_AREA_STYLE('Steel - Satin',(#1260));
#1259=FILL_AREA_STYLE('Opaque(233,29,45)',(#1261));
#1260=FILL_AREA_STYLE_COLOUR('Steel - Satin',#1262);
#1261=FILL_AREA_STYLE_COLOUR('Opaque(233,29,45)',#1263);
#1262=COLOUR_RGB('Steel - Satin',0.627450980392157,0.627450980392157,0.627450980392157);
#1263=COLOUR_RGB('Opaque(233,29,45)',0.913725490196078,0.113725490196078,
0.176470588235294);
ENDSEC;
END-ISO-10303-21;
