ISO-10303-21;
HEADER;
/* Generated by software containing ST-Developer
 * from STEP Tools, Inc. (www.steptools.com) 
 */

FILE_DESCRIPTION(
/* description */ (''),
/* implementation_level */ '2;1');

FILE_NAME(
/* name */ 'CAD_case_base.step',
/* time_stamp */ '2026-09-12T16:26:58+01:00',
/* author */ (''),
/* organization */ (''),
/* preprocessor_version */ 'ST-DEVELOPER v20.2',
/* originating_system */ 'Autodesk Translation Framework v15.15.0.0',
/* authorisation */ '');

FILE_SCHEMA (('AUTOMOTIVE_DESIGN { 1 0 10303 214 3 1 1 }'));
ENDSEC;

DATA;
#10=MECHANICAL_DESIGN_GEOMETRIC_PRESENTATION_REPRESENTATION('',(#13,#14,
#15),#1142);
#11=SHAPE_REPRESENTATION_RELATIONSHIP('SRR','None',#1149,#12);
#12=ADVANCED_BREP_SHAPE_REPRESENTATION('',(#16,#17,#18),#1141);
#13=STYLED_ITEM('',(#1159),#16);
#14=STYLED_ITEM('',(#1159),#17);
#15=STYLED_ITEM('',(#1159),#18);
#16=MANIFOLD_SOLID_BREP('Body1',#678);
#17=MANIFOLD_SOLID_BREP('Body2',#679);
#18=MANIFOLD_SOLID_BREP('Body3',#680);
#19=CYLINDRICAL_SURFACE('',#726,0.5);
#20=CYLINDRICAL_SURFACE('',#729,0.5);
#21=CYLINDRICAL_SURFACE('',#732,0.5);
#22=CYLINDRICAL_SURFACE('',#735,0.5);
#23=CYLINDRICAL_SURFACE('',#741,1.25);
#24=CYLINDRICAL_SURFACE('',#744,1.00000000000001);
#25=CYLINDRICAL_SURFACE('',#750,1.25);
#26=CYLINDRICAL_SURFACE('',#753,1.00000000000001);
#27=FACE_BOUND('',#75,.T.);
#28=FACE_BOUND('',#86,.T.);
#29=FACE_BOUND('',#95,.T.);
#30=FACE_BOUND('',#110,.T.);
#31=FACE_BOUND('',#116,.T.);
#32=FACE_OUTER_BOUND('',#74,.T.);
#33=FACE_OUTER_BOUND('',#76,.T.);
#34=FACE_OUTER_BOUND('',#77,.T.);
#35=FACE_OUTER_BOUND('',#78,.T.);
#36=FACE_OUTER_BOUND('',#79,.T.);
#37=FACE_OUTER_BOUND('',#80,.T.);
#38=FACE_OUTER_BOUND('',#81,.T.);
#39=FACE_OUTER_BOUND('',#82,.T.);
#40=FACE_OUTER_BOUND('',#83,.T.);
#41=FACE_OUTER_BOUND('',#84,.T.);
#42=FACE_OUTER_BOUND('',#85,.T.);
#43=FACE_OUTER_BOUND('',#87,.T.);
#44=FACE_OUTER_BOUND('',#88,.T.);
#45=FACE_OUTER_BOUND('',#89,.T.);
#46=FACE_OUTER_BOUND('',#90,.T.);
#47=FACE_OUTER_BOUND('',#91,.T.);
#48=FACE_OUTER_BOUND('',#92,.T.);
#49=FACE_OUTER_BOUND('',#93,.T.);
#50=FACE_OUTER_BOUND('',#94,.T.);
#51=FACE_OUTER_BOUND('',#96,.T.);
#52=FACE_OUTER_BOUND('',#97,.T.);
#53=FACE_OUTER_BOUND('',#98,.T.);
#54=FACE_OUTER_BOUND('',#99,.T.);
#55=FACE_OUTER_BOUND('',#100,.T.);
#56=FACE_OUTER_BOUND('',#101,.T.);
#57=FACE_OUTER_BOUND('',#102,.T.);
#58=FACE_OUTER_BOUND('',#103,.T.);
#59=FACE_OUTER_BOUND('',#104,.T.);
#60=FACE_OUTER_BOUND('',#105,.T.);
#61=FACE_OUTER_BOUND('',#106,.T.);
#62=FACE_OUTER_BOUND('',#107,.T.);
#63=FACE_OUTER_BOUND('',#108,.T.);
#64=FACE_OUTER_BOUND('',#109,.T.);
#65=FACE_OUTER_BOUND('',#111,.T.);
#66=FACE_OUTER_BOUND('',#112,.T.);
#67=FACE_OUTER_BOUND('',#113,.T.);
#68=FACE_OUTER_BOUND('',#114,.T.);
#69=FACE_OUTER_BOUND('',#115,.T.);
#70=FACE_OUTER_BOUND('',#117,.T.);
#71=FACE_OUTER_BOUND('',#118,.T.);
#72=FACE_OUTER_BOUND('',#119,.T.);
#73=FACE_OUTER_BOUND('',#120,.T.);
#74=EDGE_LOOP('',(#424,#425,#426,#427,#428,#429,#430,#431,#432,#433,#434,
#435,#436));
#75=EDGE_LOOP('',(#437,#438,#439,#440,#441,#442,#443));
#76=EDGE_LOOP('',(#444,#445,#446));
#77=EDGE_LOOP('',(#447,#448,#449));
#78=EDGE_LOOP('',(#450,#451,#452));
#79=EDGE_LOOP('',(#453,#454,#455,#456));
#80=EDGE_LOOP('',(#457,#458,#459,#460));
#81=EDGE_LOOP('',(#461,#462,#463,#464));
#82=EDGE_LOOP('',(#465,#466,#467,#468));
#83=EDGE_LOOP('',(#469,#470,#471,#472));
#84=EDGE_LOOP('',(#473,#474,#475,#476));
#85=EDGE_LOOP('',(#477,#478,#479,#480));
#86=EDGE_LOOP('',(#481,#482,#483,#484));
#87=EDGE_LOOP('',(#485,#486,#487,#488));
#88=EDGE_LOOP('',(#489,#490,#491,#492,#493,#494,#495));
#89=EDGE_LOOP('',(#496,#497,#498,#499));
#90=EDGE_LOOP('',(#500,#501,#502,#503));
#91=EDGE_LOOP('',(#504,#505,#506,#507));
#92=EDGE_LOOP('',(#508,#509,#510,#511));
#93=EDGE_LOOP('',(#512,#513,#514,#515,#516));
#94=EDGE_LOOP('',(#517,#518,#519,#520));
#95=EDGE_LOOP('',(#521,#522,#523,#524));
#96=EDGE_LOOP('',(#525,#526,#527,#528));
#97=EDGE_LOOP('',(#529,#530,#531,#532,#533,#534));
#98=EDGE_LOOP('',(#535,#536,#537,#538,#539,#540,#541));
#99=EDGE_LOOP('',(#542,#543,#544,#545,#546,#547));
#100=EDGE_LOOP('',(#548,#549,#550,#551,#552,#553));
#101=EDGE_LOOP('',(#554,#555,#556,#557,#558));
#102=EDGE_LOOP('',(#559));
#103=EDGE_LOOP('',(#560,#561,#562,#563,#564));
#104=EDGE_LOOP('',(#565));
#105=EDGE_LOOP('',(#566,#567,#568,#569,#570));
#106=EDGE_LOOP('',(#571));
#107=EDGE_LOOP('',(#572,#573,#574,#575,#576));
#108=EDGE_LOOP('',(#577));
#109=EDGE_LOOP('',(#578));
#110=EDGE_LOOP('',(#579));
#111=EDGE_LOOP('',(#580,#581,#582,#583));
#112=EDGE_LOOP('',(#584));
#113=EDGE_LOOP('',(#585,#586,#587,#588));
#114=EDGE_LOOP('',(#589));
#115=EDGE_LOOP('',(#590));
#116=EDGE_LOOP('',(#591));
#117=EDGE_LOOP('',(#592,#593,#594,#595));
#118=EDGE_LOOP('',(#596));
#119=EDGE_LOOP('',(#597,#598,#599,#600));
#120=EDGE_LOOP('',(#601));
#121=LINE('',#957,#190);
#122=LINE('',#961,#191);
#123=LINE('',#965,#192);
#124=LINE('',#967,#193);
#125=LINE('',#969,#194);
#126=LINE('',#971,#195);
#127=LINE('',#973,#196);
#128=LINE('',#977,#197);
#129=LINE('',#980,#198);
#130=LINE('',#982,#199);
#131=LINE('',#984,#200);
#132=LINE('',#986,#201);
#133=LINE('',#988,#202);
#134=LINE('',#990,#203);
#135=LINE('',#991,#204);
#136=LINE('',#995,#205);
#137=LINE('',#996,#206);
#138=LINE('',#1000,#207);
#139=LINE('',#1001,#208);
#140=LINE('',#1005,#209);
#141=LINE('',#1006,#210);
#142=LINE('',#1010,#211);
#143=LINE('',#1012,#212);
#144=LINE('',#1014,#213);
#145=LINE('',#1015,#214);
#146=LINE('',#1018,#215);
#147=LINE('',#1020,#216);
#148=LINE('',#1021,#217);
#149=LINE('',#1024,#218);
#150=LINE('',#1026,#219);
#151=LINE('',#1027,#220);
#152=LINE('',#1029,#221);
#153=LINE('',#1030,#222);
#154=LINE('',#1033,#223);
#155=LINE('',#1035,#224);
#156=LINE('',#1036,#225);
#157=LINE('',#1039,#226);
#158=LINE('',#1040,#227);
#159=LINE('',#1043,#228);
#160=LINE('',#1044,#229);
#161=LINE('',#1047,#230);
#162=LINE('',#1048,#231);
#163=LINE('',#1051,#232);
#164=LINE('',#1053,#233);
#165=LINE('',#1054,#234);
#166=LINE('',#1056,#235);
#167=LINE('',#1058,#236);
#168=LINE('',#1062,#237);
#169=LINE('',#1064,#238);
#170=LINE('',#1065,#239);
#171=LINE('',#1068,#240);
#172=LINE('',#1069,#241);
#173=LINE('',#1072,#242);
#174=LINE('',#1074,#243);
#175=LINE('',#1075,#244);
#176=LINE('',#1077,#245);
#177=LINE('',#1080,#246);
#178=LINE('',#1081,#247);
#179=LINE('',#1084,#248);
#180=LINE('',#1085,#249);
#181=LINE('',#1087,#250);
#182=LINE('',#1092,#251);
#183=LINE('',#1097,#252);
#184=LINE('',#1102,#253);
#185=LINE('',#1107,#254);
#186=LINE('',#1116,#255);
#187=LINE('',#1122,#256);
#188=LINE('',#1131,#257);
#189=LINE('',#1137,#258);
#190=VECTOR('',#762,4.3);
#191=VECTOR('',#765,2.5265625);
#192=VECTOR('',#768,4.3);
#193=VECTOR('',#769,1.);
#194=VECTOR('',#770,1.);
#195=VECTOR('',#771,1.);
#196=VECTOR('',#772,0.773437499999997);
#197=VECTOR('',#777,0.773437499999997);
#198=VECTOR('',#778,1.);
#199=VECTOR('',#779,1.);
#200=VECTOR('',#780,1.);
#201=VECTOR('',#781,1.);
#202=VECTOR('',#782,1.);
#203=VECTOR('',#783,1.);
#204=VECTOR('',#784,1.);
#205=VECTOR('',#789,0.773437499999997);
#206=VECTOR('',#790,4.3);
#207=VECTOR('',#795,2.5265625);
#208=VECTOR('',#796,4.3);
#209=VECTOR('',#801,4.3);
#210=VECTOR('',#802,2.5265625);
#211=VECTOR('',#805,1.);
#212=VECTOR('',#806,1.00085);
#213=VECTOR('',#807,1.);
#214=VECTOR('',#808,1.00085);
#215=VECTOR('',#811,1.);
#216=VECTOR('',#812,1.);
#217=VECTOR('',#813,1.00085);
#218=VECTOR('',#816,1.);
#219=VECTOR('',#817,1.);
#220=VECTOR('',#818,1.00085);
#221=VECTOR('',#821,1.);
#222=VECTOR('',#822,1.);
#223=VECTOR('',#825,1.00085);
#224=VECTOR('',#826,4.10085);
#225=VECTOR('',#827,1.00085);
#226=VECTOR('',#830,3.10085);
#227=VECTOR('',#831,1.);
#228=VECTOR('',#834,1.);
#229=VECTOR('',#835,1.5021257225);
#230=VECTOR('',#838,1.);
#231=VECTOR('',#839,1.);
#232=VECTOR('',#842,3.10085);
#233=VECTOR('',#843,4.10085);
#234=VECTOR('',#844,1.);
#235=VECTOR('',#847,1.);
#236=VECTOR('',#850,1.00085);
#237=VECTOR('',#855,1.);
#238=VECTOR('',#856,1.);
#239=VECTOR('',#857,1.);
#240=VECTOR('',#860,0.729999977898976);
#241=VECTOR('',#861,4.3);
#242=VECTOR('',#864,1.15958012364917);
#243=VECTOR('',#865,1.);
#244=VECTOR('',#866,1.);
#245=VECTOR('',#869,1.);
#246=VECTOR('',#872,0.773437499999997);
#247=VECTOR('',#873,0.729999977898976);
#248=VECTOR('',#876,0.773437499999997);
#249=VECTOR('',#877,4.3);
#250=VECTOR('',#880,0.729999977898976);
#251=VECTOR('',#887,0.5);
#252=VECTOR('',#894,0.5);
#253=VECTOR('',#901,0.5);
#254=VECTOR('',#908,0.5);
#255=VECTOR('',#919,1.25);
#256=VECTOR('',#928,1.00000000000001);
#257=VECTOR('',#939,1.25);
#258=VECTOR('',#948,1.00000000000001);
#259=CIRCLE('',#695,0.5);
#260=CIRCLE('',#696,0.5);
#261=CIRCLE('',#697,0.5);
#262=CIRCLE('',#698,0.5);
#263=CIRCLE('',#699,0.5);
#264=CIRCLE('',#701,0.5);
#265=CIRCLE('',#703,0.5);
#266=CIRCLE('',#705,0.5);
#267=CIRCLE('',#727,0.5);
#268=CIRCLE('',#730,0.5);
#269=CIRCLE('',#733,0.5);
#270=CIRCLE('',#736,0.5);
#271=CIRCLE('',#739,1.25);
#272=CIRCLE('',#740,1.00000000000001);
#273=CIRCLE('',#742,1.25);
#274=CIRCLE('',#745,1.00000000000001);
#275=CIRCLE('',#748,1.25);
#276=CIRCLE('',#749,1.00000000000001);
#277=CIRCLE('',#751,1.25);
#278=CIRCLE('',#754,1.00000000000001);
#279=VERTEX_POINT('',#953);
#280=VERTEX_POINT('',#954);
#281=VERTEX_POINT('',#956);
#282=VERTEX_POINT('',#958);
#283=VERTEX_POINT('',#960);
#284=VERTEX_POINT('',#962);
#285=VERTEX_POINT('',#964);
#286=VERTEX_POINT('',#966);
#287=VERTEX_POINT('',#968);
#288=VERTEX_POINT('',#970);
#289=VERTEX_POINT('',#972);
#290=VERTEX_POINT('',#974);
#291=VERTEX_POINT('',#978);
#292=VERTEX_POINT('',#979);
#293=VERTEX_POINT('',#981);
#294=VERTEX_POINT('',#983);
#295=VERTEX_POINT('',#985);
#296=VERTEX_POINT('',#987);
#297=VERTEX_POINT('',#989);
#298=VERTEX_POINT('',#994);
#299=VERTEX_POINT('',#999);
#300=VERTEX_POINT('',#1004);
#301=VERTEX_POINT('',#1008);
#302=VERTEX_POINT('',#1009);
#303=VERTEX_POINT('',#1011);
#304=VERTEX_POINT('',#1013);
#305=VERTEX_POINT('',#1017);
#306=VERTEX_POINT('',#1019);
#307=VERTEX_POINT('',#1023);
#308=VERTEX_POINT('',#1025);
#309=VERTEX_POINT('',#1032);
#310=VERTEX_POINT('',#1034);
#311=VERTEX_POINT('',#1038);
#312=VERTEX_POINT('',#1042);
#313=VERTEX_POINT('',#1046);
#314=VERTEX_POINT('',#1050);
#315=VERTEX_POINT('',#1052);
#316=VERTEX_POINT('',#1061);
#317=VERTEX_POINT('',#1063);
#318=VERTEX_POINT('',#1067);
#319=VERTEX_POINT('',#1071);
#320=VERTEX_POINT('',#1073);
#321=VERTEX_POINT('',#1079);
#322=VERTEX_POINT('',#1083);
#323=VERTEX_POINT('',#1090);
#324=VERTEX_POINT('',#1095);
#325=VERTEX_POINT('',#1100);
#326=VERTEX_POINT('',#1105);
#327=VERTEX_POINT('',#1110);
#328=VERTEX_POINT('',#1112);
#329=VERTEX_POINT('',#1115);
#330=VERTEX_POINT('',#1120);
#331=VERTEX_POINT('',#1125);
#332=VERTEX_POINT('',#1127);
#333=VERTEX_POINT('',#1130);
#334=VERTEX_POINT('',#1135);
#335=EDGE_CURVE('',#279,#280,#259,.T.);
#336=EDGE_CURVE('',#281,#279,#121,.T.);
#337=EDGE_CURVE('',#282,#281,#260,.T.);
#338=EDGE_CURVE('',#282,#283,#122,.T.);
#339=EDGE_CURVE('',#284,#283,#261,.T.);
#340=EDGE_CURVE('',#285,#284,#123,.T.);
#341=EDGE_CURVE('',#285,#286,#124,.T.);
#342=EDGE_CURVE('',#286,#287,#125,.T.);
#343=EDGE_CURVE('',#287,#288,#126,.T.);
#344=EDGE_CURVE('',#289,#288,#127,.T.);
#345=EDGE_CURVE('',#290,#289,#262,.T.);
#346=EDGE_CURVE('',#289,#290,#263,.T.);
#347=EDGE_CURVE('',#280,#289,#128,.T.);
#348=EDGE_CURVE('',#291,#292,#129,.T.);
#349=EDGE_CURVE('',#292,#293,#130,.T.);
#350=EDGE_CURVE('',#293,#294,#131,.T.);
#351=EDGE_CURVE('',#294,#295,#132,.T.);
#352=EDGE_CURVE('',#295,#296,#133,.T.);
#353=EDGE_CURVE('',#296,#297,#134,.T.);
#354=EDGE_CURVE('',#297,#291,#135,.T.);
#355=EDGE_CURVE('',#280,#279,#264,.T.);
#356=EDGE_CURVE('',#298,#280,#136,.T.);
#357=EDGE_CURVE('',#279,#298,#137,.T.);
#358=EDGE_CURVE('',#283,#284,#265,.T.);
#359=EDGE_CURVE('',#283,#299,#138,.T.);
#360=EDGE_CURVE('',#284,#299,#139,.T.);
#361=EDGE_CURVE('',#281,#282,#266,.T.);
#362=EDGE_CURVE('',#300,#281,#140,.T.);
#363=EDGE_CURVE('',#300,#282,#141,.T.);
#364=EDGE_CURVE('',#301,#302,#142,.T.);
#365=EDGE_CURVE('',#301,#303,#143,.T.);
#366=EDGE_CURVE('',#304,#303,#144,.T.);
#367=EDGE_CURVE('',#302,#304,#145,.T.);
#368=EDGE_CURVE('',#302,#305,#146,.T.);
#369=EDGE_CURVE('',#306,#304,#147,.T.);
#370=EDGE_CURVE('',#305,#306,#148,.T.);
#371=EDGE_CURVE('',#305,#307,#149,.T.);
#372=EDGE_CURVE('',#308,#306,#150,.T.);
#373=EDGE_CURVE('',#307,#308,#151,.T.);
#374=EDGE_CURVE('',#307,#301,#152,.T.);
#375=EDGE_CURVE('',#303,#308,#153,.T.);
#376=EDGE_CURVE('',#309,#295,#154,.T.);
#377=EDGE_CURVE('',#310,#309,#155,.T.);
#378=EDGE_CURVE('',#296,#310,#156,.T.);
#379=EDGE_CURVE('',#310,#311,#157,.T.);
#380=EDGE_CURVE('',#297,#311,#158,.T.);
#381=EDGE_CURVE('',#311,#312,#159,.T.);
#382=EDGE_CURVE('',#312,#291,#160,.T.);
#383=EDGE_CURVE('',#312,#313,#161,.T.);
#384=EDGE_CURVE('',#313,#292,#162,.T.);
#385=EDGE_CURVE('',#309,#314,#163,.T.);
#386=EDGE_CURVE('',#314,#315,#164,.T.);
#387=EDGE_CURVE('',#313,#315,#165,.T.);
#388=EDGE_CURVE('',#315,#293,#166,.T.);
#389=EDGE_CURVE('',#294,#314,#167,.T.);
#390=EDGE_CURVE('',#286,#316,#168,.T.);
#391=EDGE_CURVE('',#317,#285,#169,.T.);
#392=EDGE_CURVE('',#316,#317,#170,.T.);
#393=EDGE_CURVE('',#299,#318,#171,.T.);
#394=EDGE_CURVE('',#318,#317,#172,.T.);
#395=EDGE_CURVE('',#319,#287,#173,.T.);
#396=EDGE_CURVE('',#320,#319,#174,.T.);
#397=EDGE_CURVE('',#288,#320,#175,.T.);
#398=EDGE_CURVE('',#319,#316,#176,.T.);
#399=EDGE_CURVE('',#321,#320,#177,.T.);
#400=EDGE_CURVE('',#298,#321,#178,.T.);
#401=EDGE_CURVE('',#322,#318,#179,.T.);
#402=EDGE_CURVE('',#321,#322,#180,.T.);
#403=EDGE_CURVE('',#322,#300,#181,.T.);
#404=EDGE_CURVE('',#323,#323,#267,.T.);
#405=EDGE_CURVE('',#323,#283,#182,.T.);
#406=EDGE_CURVE('',#324,#324,#268,.T.);
#407=EDGE_CURVE('',#324,#281,#183,.T.);
#408=EDGE_CURVE('',#325,#325,#269,.T.);
#409=EDGE_CURVE('',#325,#280,#184,.T.);
#410=EDGE_CURVE('',#326,#326,#270,.T.);
#411=EDGE_CURVE('',#326,#290,#185,.T.);
#412=EDGE_CURVE('',#327,#327,#271,.T.);
#413=EDGE_CURVE('',#328,#328,#272,.T.);
#414=EDGE_CURVE('',#327,#329,#186,.T.);
#415=EDGE_CURVE('',#329,#329,#273,.T.);
#416=EDGE_CURVE('',#330,#330,#274,.T.);
#417=EDGE_CURVE('',#330,#328,#187,.T.);
#418=EDGE_CURVE('',#331,#331,#275,.T.);
#419=EDGE_CURVE('',#332,#332,#276,.T.);
#420=EDGE_CURVE('',#331,#333,#188,.T.);
#421=EDGE_CURVE('',#333,#333,#277,.T.);
#422=EDGE_CURVE('',#334,#334,#278,.T.);
#423=EDGE_CURVE('',#334,#332,#189,.T.);
#424=ORIENTED_EDGE('',*,*,#335,.F.);
#425=ORIENTED_EDGE('',*,*,#336,.F.);
#426=ORIENTED_EDGE('',*,*,#337,.F.);
#427=ORIENTED_EDGE('',*,*,#338,.T.);
#428=ORIENTED_EDGE('',*,*,#339,.F.);
#429=ORIENTED_EDGE('',*,*,#340,.F.);
#430=ORIENTED_EDGE('',*,*,#341,.T.);
#431=ORIENTED_EDGE('',*,*,#342,.T.);
#432=ORIENTED_EDGE('',*,*,#343,.T.);
#433=ORIENTED_EDGE('',*,*,#344,.F.);
#434=ORIENTED_EDGE('',*,*,#345,.F.);
#435=ORIENTED_EDGE('',*,*,#346,.F.);
#436=ORIENTED_EDGE('',*,*,#347,.F.);
#437=ORIENTED_EDGE('',*,*,#348,.T.);
#438=ORIENTED_EDGE('',*,*,#349,.T.);
#439=ORIENTED_EDGE('',*,*,#350,.T.);
#440=ORIENTED_EDGE('',*,*,#351,.T.);
#441=ORIENTED_EDGE('',*,*,#352,.T.);
#442=ORIENTED_EDGE('',*,*,#353,.T.);
#443=ORIENTED_EDGE('',*,*,#354,.T.);
#444=ORIENTED_EDGE('',*,*,#355,.F.);
#445=ORIENTED_EDGE('',*,*,#356,.F.);
#446=ORIENTED_EDGE('',*,*,#357,.F.);
#447=ORIENTED_EDGE('',*,*,#358,.F.);
#448=ORIENTED_EDGE('',*,*,#359,.T.);
#449=ORIENTED_EDGE('',*,*,#360,.F.);
#450=ORIENTED_EDGE('',*,*,#361,.F.);
#451=ORIENTED_EDGE('',*,*,#362,.F.);
#452=ORIENTED_EDGE('',*,*,#363,.T.);
#453=ORIENTED_EDGE('',*,*,#364,.F.);
#454=ORIENTED_EDGE('',*,*,#365,.T.);
#455=ORIENTED_EDGE('',*,*,#366,.F.);
#456=ORIENTED_EDGE('',*,*,#367,.F.);
#457=ORIENTED_EDGE('',*,*,#368,.F.);
#458=ORIENTED_EDGE('',*,*,#367,.T.);
#459=ORIENTED_EDGE('',*,*,#369,.F.);
#460=ORIENTED_EDGE('',*,*,#370,.F.);
#461=ORIENTED_EDGE('',*,*,#371,.F.);
#462=ORIENTED_EDGE('',*,*,#370,.T.);
#463=ORIENTED_EDGE('',*,*,#372,.F.);
#464=ORIENTED_EDGE('',*,*,#373,.F.);
#465=ORIENTED_EDGE('',*,*,#374,.F.);
#466=ORIENTED_EDGE('',*,*,#373,.T.);
#467=ORIENTED_EDGE('',*,*,#375,.F.);
#468=ORIENTED_EDGE('',*,*,#365,.F.);
#469=ORIENTED_EDGE('',*,*,#352,.F.);
#470=ORIENTED_EDGE('',*,*,#376,.F.);
#471=ORIENTED_EDGE('',*,*,#377,.F.);
#472=ORIENTED_EDGE('',*,*,#378,.F.);
#473=ORIENTED_EDGE('',*,*,#353,.F.);
#474=ORIENTED_EDGE('',*,*,#378,.T.);
#475=ORIENTED_EDGE('',*,*,#379,.T.);
#476=ORIENTED_EDGE('',*,*,#380,.F.);
#477=ORIENTED_EDGE('',*,*,#354,.F.);
#478=ORIENTED_EDGE('',*,*,#380,.T.);
#479=ORIENTED_EDGE('',*,*,#381,.T.);
#480=ORIENTED_EDGE('',*,*,#382,.T.);
#481=ORIENTED_EDGE('',*,*,#371,.T.);
#482=ORIENTED_EDGE('',*,*,#374,.T.);
#483=ORIENTED_EDGE('',*,*,#364,.T.);
#484=ORIENTED_EDGE('',*,*,#368,.T.);
#485=ORIENTED_EDGE('',*,*,#348,.F.);
#486=ORIENTED_EDGE('',*,*,#382,.F.);
#487=ORIENTED_EDGE('',*,*,#383,.T.);
#488=ORIENTED_EDGE('',*,*,#384,.T.);
#489=ORIENTED_EDGE('',*,*,#381,.F.);
#490=ORIENTED_EDGE('',*,*,#379,.F.);
#491=ORIENTED_EDGE('',*,*,#377,.T.);
#492=ORIENTED_EDGE('',*,*,#385,.T.);
#493=ORIENTED_EDGE('',*,*,#386,.T.);
#494=ORIENTED_EDGE('',*,*,#387,.F.);
#495=ORIENTED_EDGE('',*,*,#383,.F.);
#496=ORIENTED_EDGE('',*,*,#349,.F.);
#497=ORIENTED_EDGE('',*,*,#384,.F.);
#498=ORIENTED_EDGE('',*,*,#387,.T.);
#499=ORIENTED_EDGE('',*,*,#388,.T.);
#500=ORIENTED_EDGE('',*,*,#350,.F.);
#501=ORIENTED_EDGE('',*,*,#388,.F.);
#502=ORIENTED_EDGE('',*,*,#386,.F.);
#503=ORIENTED_EDGE('',*,*,#389,.F.);
#504=ORIENTED_EDGE('',*,*,#351,.F.);
#505=ORIENTED_EDGE('',*,*,#389,.T.);
#506=ORIENTED_EDGE('',*,*,#385,.F.);
#507=ORIENTED_EDGE('',*,*,#376,.T.);
#508=ORIENTED_EDGE('',*,*,#390,.F.);
#509=ORIENTED_EDGE('',*,*,#341,.F.);
#510=ORIENTED_EDGE('',*,*,#391,.F.);
#511=ORIENTED_EDGE('',*,*,#392,.F.);
#512=ORIENTED_EDGE('',*,*,#391,.T.);
#513=ORIENTED_EDGE('',*,*,#340,.T.);
#514=ORIENTED_EDGE('',*,*,#360,.T.);
#515=ORIENTED_EDGE('',*,*,#393,.T.);
#516=ORIENTED_EDGE('',*,*,#394,.T.);
#517=ORIENTED_EDGE('',*,*,#343,.F.);
#518=ORIENTED_EDGE('',*,*,#395,.F.);
#519=ORIENTED_EDGE('',*,*,#396,.F.);
#520=ORIENTED_EDGE('',*,*,#397,.F.);
#521=ORIENTED_EDGE('',*,*,#372,.T.);
#522=ORIENTED_EDGE('',*,*,#369,.T.);
#523=ORIENTED_EDGE('',*,*,#366,.T.);
#524=ORIENTED_EDGE('',*,*,#375,.T.);
#525=ORIENTED_EDGE('',*,*,#390,.T.);
#526=ORIENTED_EDGE('',*,*,#398,.F.);
#527=ORIENTED_EDGE('',*,*,#395,.T.);
#528=ORIENTED_EDGE('',*,*,#342,.F.);
#529=ORIENTED_EDGE('',*,*,#397,.T.);
#530=ORIENTED_EDGE('',*,*,#399,.F.);
#531=ORIENTED_EDGE('',*,*,#400,.F.);
#532=ORIENTED_EDGE('',*,*,#356,.T.);
#533=ORIENTED_EDGE('',*,*,#347,.T.);
#534=ORIENTED_EDGE('',*,*,#344,.T.);
#535=ORIENTED_EDGE('',*,*,#392,.T.);
#536=ORIENTED_EDGE('',*,*,#394,.F.);
#537=ORIENTED_EDGE('',*,*,#401,.F.);
#538=ORIENTED_EDGE('',*,*,#402,.F.);
#539=ORIENTED_EDGE('',*,*,#399,.T.);
#540=ORIENTED_EDGE('',*,*,#396,.T.);
#541=ORIENTED_EDGE('',*,*,#398,.T.);
#542=ORIENTED_EDGE('',*,*,#403,.T.);
#543=ORIENTED_EDGE('',*,*,#362,.T.);
#544=ORIENTED_EDGE('',*,*,#336,.T.);
#545=ORIENTED_EDGE('',*,*,#357,.T.);
#546=ORIENTED_EDGE('',*,*,#400,.T.);
#547=ORIENTED_EDGE('',*,*,#402,.T.);
#548=ORIENTED_EDGE('',*,*,#401,.T.);
#549=ORIENTED_EDGE('',*,*,#393,.F.);
#550=ORIENTED_EDGE('',*,*,#359,.F.);
#551=ORIENTED_EDGE('',*,*,#338,.F.);
#552=ORIENTED_EDGE('',*,*,#363,.F.);
#553=ORIENTED_EDGE('',*,*,#403,.F.);
#554=ORIENTED_EDGE('',*,*,#404,.F.);
#555=ORIENTED_EDGE('',*,*,#405,.T.);
#556=ORIENTED_EDGE('',*,*,#358,.T.);
#557=ORIENTED_EDGE('',*,*,#339,.T.);
#558=ORIENTED_EDGE('',*,*,#405,.F.);
#559=ORIENTED_EDGE('',*,*,#404,.T.);
#560=ORIENTED_EDGE('',*,*,#406,.F.);
#561=ORIENTED_EDGE('',*,*,#407,.T.);
#562=ORIENTED_EDGE('',*,*,#361,.T.);
#563=ORIENTED_EDGE('',*,*,#337,.T.);
#564=ORIENTED_EDGE('',*,*,#407,.F.);
#565=ORIENTED_EDGE('',*,*,#406,.T.);
#566=ORIENTED_EDGE('',*,*,#408,.F.);
#567=ORIENTED_EDGE('',*,*,#409,.T.);
#568=ORIENTED_EDGE('',*,*,#355,.T.);
#569=ORIENTED_EDGE('',*,*,#335,.T.);
#570=ORIENTED_EDGE('',*,*,#409,.F.);
#571=ORIENTED_EDGE('',*,*,#408,.T.);
#572=ORIENTED_EDGE('',*,*,#410,.F.);
#573=ORIENTED_EDGE('',*,*,#411,.T.);
#574=ORIENTED_EDGE('',*,*,#345,.T.);
#575=ORIENTED_EDGE('',*,*,#346,.T.);
#576=ORIENTED_EDGE('',*,*,#411,.F.);
#577=ORIENTED_EDGE('',*,*,#410,.T.);
#578=ORIENTED_EDGE('',*,*,#412,.T.);
#579=ORIENTED_EDGE('',*,*,#413,.F.);
#580=ORIENTED_EDGE('',*,*,#412,.F.);
#581=ORIENTED_EDGE('',*,*,#414,.T.);
#582=ORIENTED_EDGE('',*,*,#415,.T.);
#583=ORIENTED_EDGE('',*,*,#414,.F.);
#584=ORIENTED_EDGE('',*,*,#415,.F.);
#585=ORIENTED_EDGE('',*,*,#416,.F.);
#586=ORIENTED_EDGE('',*,*,#417,.T.);
#587=ORIENTED_EDGE('',*,*,#413,.T.);
#588=ORIENTED_EDGE('',*,*,#417,.F.);
#589=ORIENTED_EDGE('',*,*,#416,.T.);
#590=ORIENTED_EDGE('',*,*,#418,.T.);
#591=ORIENTED_EDGE('',*,*,#419,.F.);
#592=ORIENTED_EDGE('',*,*,#418,.F.);
#593=ORIENTED_EDGE('',*,*,#420,.T.);
#594=ORIENTED_EDGE('',*,*,#421,.T.);
#595=ORIENTED_EDGE('',*,*,#420,.F.);
#596=ORIENTED_EDGE('',*,*,#421,.F.);
#597=ORIENTED_EDGE('',*,*,#422,.F.);
#598=ORIENTED_EDGE('',*,*,#423,.T.);
#599=ORIENTED_EDGE('',*,*,#419,.T.);
#600=ORIENTED_EDGE('',*,*,#423,.F.);
#601=ORIENTED_EDGE('',*,*,#422,.T.);
#602=PLANE('',#694);
#603=PLANE('',#700);
#604=PLANE('',#702);
#605=PLANE('',#704);
#606=PLANE('',#706);
#607=PLANE('',#707);
#608=PLANE('',#708);
#609=PLANE('',#709);
#610=PLANE('',#710);
#611=PLANE('',#711);
#612=PLANE('',#712);
#613=PLANE('',#713);
#614=PLANE('',#714);
#615=PLANE('',#715);
#616=PLANE('',#716);
#617=PLANE('',#717);
#618=PLANE('',#718);
#619=PLANE('',#719);
#620=PLANE('',#720);
#621=PLANE('',#721);
#622=PLANE('',#722);
#623=PLANE('',#723);
#624=PLANE('',#724);
#625=PLANE('',#725);
#626=PLANE('',#728);
#627=PLANE('',#731);
#628=PLANE('',#734);
#629=PLANE('',#737);
#630=PLANE('',#738);
#631=PLANE('',#743);
#632=PLANE('',#746);
#633=PLANE('',#747);
#634=PLANE('',#752);
#635=PLANE('',#755);
#636=ADVANCED_FACE('',(#32,#27),#602,.F.);
#637=ADVANCED_FACE('',(#33),#603,.F.);
#638=ADVANCED_FACE('',(#34),#604,.F.);
#639=ADVANCED_FACE('',(#35),#605,.F.);
#640=ADVANCED_FACE('',(#36),#606,.T.);
#641=ADVANCED_FACE('',(#37),#607,.T.);
#642=ADVANCED_FACE('',(#38),#608,.T.);
#643=ADVANCED_FACE('',(#39),#609,.T.);
#644=ADVANCED_FACE('',(#40),#610,.F.);
#645=ADVANCED_FACE('',(#41),#611,.T.);
#646=ADVANCED_FACE('',(#42,#28),#612,.T.);
#647=ADVANCED_FACE('',(#43),#613,.F.);
#648=ADVANCED_FACE('',(#44),#614,.T.);
#649=ADVANCED_FACE('',(#45),#615,.T.);
#650=ADVANCED_FACE('',(#46),#616,.T.);
#651=ADVANCED_FACE('',(#47),#617,.T.);
#652=ADVANCED_FACE('',(#48),#618,.F.);
#653=ADVANCED_FACE('',(#49),#619,.F.);
#654=ADVANCED_FACE('',(#50,#29),#620,.F.);
#655=ADVANCED_FACE('',(#51),#621,.T.);
#656=ADVANCED_FACE('',(#52),#622,.F.);
#657=ADVANCED_FACE('',(#53),#623,.F.);
#658=ADVANCED_FACE('',(#54),#624,.T.);
#659=ADVANCED_FACE('',(#55),#625,.F.);
#660=ADVANCED_FACE('',(#56),#19,.T.);
#661=ADVANCED_FACE('',(#57),#626,.T.);
#662=ADVANCED_FACE('',(#58),#20,.T.);
#663=ADVANCED_FACE('',(#59),#627,.T.);
#664=ADVANCED_FACE('',(#60),#21,.T.);
#665=ADVANCED_FACE('',(#61),#628,.T.);
#666=ADVANCED_FACE('',(#62),#22,.T.);
#667=ADVANCED_FACE('',(#63),#629,.T.);
#668=ADVANCED_FACE('',(#64,#30),#630,.T.);
#669=ADVANCED_FACE('',(#65),#23,.T.);
#670=ADVANCED_FACE('',(#66),#631,.F.);
#671=ADVANCED_FACE('',(#67),#24,.T.);
#672=ADVANCED_FACE('',(#68),#632,.T.);
#673=ADVANCED_FACE('',(#69,#31),#633,.T.);
#674=ADVANCED_FACE('',(#70),#25,.T.);
#675=ADVANCED_FACE('',(#71),#634,.F.);
#676=ADVANCED_FACE('',(#72),#26,.T.);
#677=ADVANCED_FACE('',(#73),#635,.T.);
#678=CLOSED_SHELL('',(#636,#637,#638,#639,#640,#641,#642,#643,#644,#645,
#646,#647,#648,#649,#650,#651,#652,#653,#654,#655,#656,#657,#658,#659,#660,
#661,#662,#663,#664,#665,#666,#667));
#679=CLOSED_SHELL('',(#668,#669,#670,#671,#672));
#680=CLOSED_SHELL('',(#673,#674,#675,#676,#677));
#681=DERIVED_UNIT_ELEMENT(#683,1.);
#682=DERIVED_UNIT_ELEMENT(#1144,-3.);
#683=(
MASS_UNIT()
NAMED_UNIT(*)
SI_UNIT(.KILO.,.GRAM.)
);
#684=DERIVED_UNIT((#681,#682));
#685=MEASURE_REPRESENTATION_ITEM('density measure',
POSITIVE_RATIO_MEASURE(7850.),#684);
#686=PROPERTY_DEFINITION_REPRESENTATION(#691,#688);
#687=PROPERTY_DEFINITION_REPRESENTATION(#692,#689);
#688=REPRESENTATION('material name',(#690),#1141);
#689=REPRESENTATION('density',(#685),#1141);
#690=DESCRIPTIVE_REPRESENTATION_ITEM('Steel','Steel');
#691=PROPERTY_DEFINITION('material property','material name',#1151);
#692=PROPERTY_DEFINITION('material property','density of part',#1151);
#693=AXIS2_PLACEMENT_3D('',#951,#756,#757);
#694=AXIS2_PLACEMENT_3D('',#952,#758,#759);
#695=AXIS2_PLACEMENT_3D('',#955,#760,#761);
#696=AXIS2_PLACEMENT_3D('',#959,#763,#764);
#697=AXIS2_PLACEMENT_3D('',#963,#766,#767);
#698=AXIS2_PLACEMENT_3D('',#975,#773,#774);
#699=AXIS2_PLACEMENT_3D('',#976,#775,#776);
#700=AXIS2_PLACEMENT_3D('',#992,#785,#786);
#701=AXIS2_PLACEMENT_3D('',#993,#787,#788);
#702=AXIS2_PLACEMENT_3D('',#997,#791,#792);
#703=AXIS2_PLACEMENT_3D('',#998,#793,#794);
#704=AXIS2_PLACEMENT_3D('',#1002,#797,#798);
#705=AXIS2_PLACEMENT_3D('',#1003,#799,#800);
#706=AXIS2_PLACEMENT_3D('',#1007,#803,#804);
#707=AXIS2_PLACEMENT_3D('',#1016,#809,#810);
#708=AXIS2_PLACEMENT_3D('',#1022,#814,#815);
#709=AXIS2_PLACEMENT_3D('',#1028,#819,#820);
#710=AXIS2_PLACEMENT_3D('',#1031,#823,#824);
#711=AXIS2_PLACEMENT_3D('',#1037,#828,#829);
#712=AXIS2_PLACEMENT_3D('',#1041,#832,#833);
#713=AXIS2_PLACEMENT_3D('',#1045,#836,#837);
#714=AXIS2_PLACEMENT_3D('',#1049,#840,#841);
#715=AXIS2_PLACEMENT_3D('',#1055,#845,#846);
#716=AXIS2_PLACEMENT_3D('',#1057,#848,#849);
#717=AXIS2_PLACEMENT_3D('',#1059,#851,#852);
#718=AXIS2_PLACEMENT_3D('',#1060,#853,#854);
#719=AXIS2_PLACEMENT_3D('',#1066,#858,#859);
#720=AXIS2_PLACEMENT_3D('',#1070,#862,#863);
#721=AXIS2_PLACEMENT_3D('',#1076,#867,#868);
#722=AXIS2_PLACEMENT_3D('',#1078,#870,#871);
#723=AXIS2_PLACEMENT_3D('',#1082,#874,#875);
#724=AXIS2_PLACEMENT_3D('',#1086,#878,#879);
#725=AXIS2_PLACEMENT_3D('',#1088,#881,#882);
#726=AXIS2_PLACEMENT_3D('',#1089,#883,#884);
#727=AXIS2_PLACEMENT_3D('',#1091,#885,#886);
#728=AXIS2_PLACEMENT_3D('',#1093,#888,#889);
#729=AXIS2_PLACEMENT_3D('',#1094,#890,#891);
#730=AXIS2_PLACEMENT_3D('',#1096,#892,#893);
#731=AXIS2_PLACEMENT_3D('',#1098,#895,#896);
#732=AXIS2_PLACEMENT_3D('',#1099,#897,#898);
#733=AXIS2_PLACEMENT_3D('',#1101,#899,#900);
#734=AXIS2_PLACEMENT_3D('',#1103,#902,#903);
#735=AXIS2_PLACEMENT_3D('',#1104,#904,#905);
#736=AXIS2_PLACEMENT_3D('',#1106,#906,#907);
#737=AXIS2_PLACEMENT_3D('',#1108,#909,#910);
#738=AXIS2_PLACEMENT_3D('',#1109,#911,#912);
#739=AXIS2_PLACEMENT_3D('',#1111,#913,#914);
#740=AXIS2_PLACEMENT_3D('',#1113,#915,#916);
#741=AXIS2_PLACEMENT_3D('',#1114,#917,#918);
#742=AXIS2_PLACEMENT_3D('',#1117,#920,#921);
#743=AXIS2_PLACEMENT_3D('',#1118,#922,#923);
#744=AXIS2_PLACEMENT_3D('',#1119,#924,#925);
#745=AXIS2_PLACEMENT_3D('',#1121,#926,#927);
#746=AXIS2_PLACEMENT_3D('',#1123,#929,#930);
#747=AXIS2_PLACEMENT_3D('',#1124,#931,#932);
#748=AXIS2_PLACEMENT_3D('',#1126,#933,#934);
#749=AXIS2_PLACEMENT_3D('',#1128,#935,#936);
#750=AXIS2_PLACEMENT_3D('',#1129,#937,#938);
#751=AXIS2_PLACEMENT_3D('',#1132,#940,#941);
#752=AXIS2_PLACEMENT_3D('',#1133,#942,#943);
#753=AXIS2_PLACEMENT_3D('',#1134,#944,#945);
#754=AXIS2_PLACEMENT_3D('',#1136,#946,#947);
#755=AXIS2_PLACEMENT_3D('',#1138,#949,#950);
#756=DIRECTION('axis',(0.,0.,1.));
#757=DIRECTION('refdir',(1.,0.,0.));
#758=DIRECTION('center_axis',(4.33325757109483E-33,-2.3973647156818E-16,
-1.));
#759=DIRECTION('ref_axis',(-1.,0.,-4.33325757109483E-33));
#760=DIRECTION('center_axis',(6.46092639437294E-32,-1.91737925264641E-17,
1.));
#761=DIRECTION('ref_axis',(1.,2.44929359829471E-16,-5.99130392147195E-32));
#762=DIRECTION('',(-1.,-2.44929359829471E-16,5.43852429378757E-32));
#763=DIRECTION('center_axis',(2.41218397451495E-16,2.22044604925031E-16,
1.));
#764=DIRECTION('ref_axis',(-1.83697019872103E-16,1.,-2.22044604925031E-16));
#765=DIRECTION('',(-2.44929359829471E-16,1.,-2.3973647156818E-16));
#766=DIRECTION('center_axis',(-7.42954872606736E-33,4.63263002376527E-16,
1.));
#767=DIRECTION('ref_axis',(-1.,-1.22464679914735E-16,4.93038065763132E-32));
#768=DIRECTION('',(1.,2.44929359829471E-16,-5.43852429378756E-32));
#769=DIRECTION('',(-0.622043584205496,-0.782982617526584,1.87709490025041E-16));
#770=DIRECTION('',(2.44863605529338E-16,-1.,2.3973647156818E-16));
#771=DIRECTION('',(-1.,-2.44995131786894E-16,5.44010108748765E-32));
#772=DIRECTION('',(-2.44929359829471E-16,1.,-2.79838035959318E-16));
#773=DIRECTION('center_axis',(-2.41218397451496E-16,2.22044604925031E-16,
1.));
#774=DIRECTION('ref_axis',(6.12323399573677E-17,-1.,2.22044604925031E-16));
#775=DIRECTION('center_axis',(-2.41218397451496E-16,2.22044604925031E-16,
1.));
#776=DIRECTION('ref_axis',(6.12323399573677E-17,-1.,2.22044604925031E-16));
#777=DIRECTION('',(-2.44929359829471E-16,1.,-2.79838035959318E-16));
#778=DIRECTION('',(-2.5012319973366E-16,1.,-2.3973647156818E-16));
#779=DIRECTION('',(0.621691837659873,0.783261935106699,-1.87776452636145E-16));
#780=DIRECTION('',(1.,2.44945736446581E-16,-5.43891690102779E-32));
#781=DIRECTION('',(2.44912984307271E-16,-1.,2.3973647156818E-16));
#782=DIRECTION('',(-1.,-2.44945736446581E-16,5.43891690102779E-32));
#783=DIRECTION('',(-2.44912984307271E-16,1.,-2.3973647156818E-16));
#784=DIRECTION('',(1.,2.44988651808011E-16,-5.43994573876032E-32));
#785=DIRECTION('center_axis',(4.33325757109483E-33,-2.3973647156818E-16,
-1.));
#786=DIRECTION('ref_axis',(-1.,0.,-4.33325757109483E-33));
#787=DIRECTION('center_axis',(6.46092639437294E-32,-1.91737925264641E-17,
1.));
#788=DIRECTION('ref_axis',(1.,2.44929359829471E-16,-5.99130392147195E-32));
#789=DIRECTION('',(-2.44929359829471E-16,1.,-2.79838035959318E-16));
#790=DIRECTION('',(-1.,-2.44929359829471E-16,5.43852429378757E-32));
#791=DIRECTION('center_axis',(4.33325757109483E-33,-2.3973647156818E-16,
-1.));
#792=DIRECTION('ref_axis',(-1.,0.,-4.33325757109483E-33));
#793=DIRECTION('center_axis',(-7.42954872606736E-33,4.63263002376527E-16,
1.));
#794=DIRECTION('ref_axis',(-1.,-1.22464679914735E-16,4.93038065763132E-32));
#795=DIRECTION('',(-2.44929359829471E-16,1.,-2.3973647156818E-16));
#796=DIRECTION('',(1.,2.44929359829471E-16,-5.43852429378756E-32));
#797=DIRECTION('center_axis',(4.33325757109483E-33,-2.3973647156818E-16,
-1.));
#798=DIRECTION('ref_axis',(-1.,0.,-4.33325757109483E-33));
#799=DIRECTION('center_axis',(2.41218397451495E-16,2.22044604925031E-16,
1.));
#800=DIRECTION('ref_axis',(-1.83697019872103E-16,1.,-2.22044604925031E-16));
#801=DIRECTION('',(-1.,-2.44929359829471E-16,5.43852429378757E-32));
#802=DIRECTION('',(-2.44929359829471E-16,1.,-2.3973647156818E-16));
#803=DIRECTION('center_axis',(3.75576261835605E-33,-2.37957425248621E-16,
-1.));
#804=DIRECTION('ref_axis',(-1.,0.,-3.75576261835605E-33));
#805=DIRECTION('',(1.,2.44988651808011E-16,-5.45411061810091E-32));
#806=DIRECTION('',(-2.45137372974153E-16,1.,-2.37957425248621E-16));
#807=DIRECTION('',(-1.,-2.44995131786894E-16,5.45426481400998E-32));
#808=DIRECTION('',(-2.45137372974153E-16,1.,-2.37957425248621E-16));
#809=DIRECTION('center_axis',(-1.,-2.45137372974153E-16,5.42931013064282E-32));
#810=DIRECTION('ref_axis',(5.42931013064282E-32,0.,1.));
#811=DIRECTION('',(1.17496111780862E-32,-2.69411031387197E-16,-1.));
#812=DIRECTION('',(-1.01810707644479E-32,2.63012413360872E-16,1.));
#813=DIRECTION('',(-2.45137372974153E-16,1.,-2.37957425248621E-16));
#814=DIRECTION('center_axis',(-3.75576261835605E-33,2.37957425248621E-16,
1.));
#815=DIRECTION('ref_axis',(1.,0.,3.75576261835605E-33));
#816=DIRECTION('',(-1.,-2.44988651808011E-16,5.45411061810091E-32));
#817=DIRECTION('',(1.,2.44995131786894E-16,-5.45426481400998E-32));
#818=DIRECTION('',(-2.45137372974153E-16,1.,-2.37957425248621E-16));
#819=DIRECTION('center_axis',(1.,2.45137372974153E-16,-5.42931013064282E-32));
#820=DIRECTION('ref_axis',(-5.42931013064282E-32,0.,-1.));
#821=DIRECTION('',(-1.17496111780862E-32,2.69411031387197E-16,1.));
#822=DIRECTION('',(1.01810707644479E-32,-2.63012413360872E-16,-1.));
#823=DIRECTION('center_axis',(2.44945736446581E-16,-1.,4.11627905760063E-16));
#824=DIRECTION('ref_axis',(0.,-4.11627905760063E-16,-1.));
#825=DIRECTION('',(-4.64626986687158E-32,4.11627905760063E-16,1.));
#826=DIRECTION('',(1.,2.44945736446581E-16,-5.44201881602421E-32));
#827=DIRECTION('',(4.64626986687158E-32,-4.11627905760063E-16,-1.));
#828=DIRECTION('center_axis',(1.,2.44912984307271E-16,-5.43503201551333E-32));
#829=DIRECTION('ref_axis',(-5.43503201551333E-32,0.,-1.));
#830=DIRECTION('',(-2.44912984307271E-16,1.,-2.41936162745023E-16));
#831=DIRECTION('',(1.16319395472048E-32,-2.69411031387197E-16,-1.));
#832=DIRECTION('center_axis',(2.44988651808011E-16,-1.,2.69411031387197E-16));
#833=DIRECTION('ref_axis',(0.,-2.69411031387197E-16,-1.));
#834=DIRECTION('',(1.,2.44988651808011E-16,-5.44305709381094E-32));
#835=DIRECTION('',(-1.05473934718492E-32,2.64142411406772E-16,1.));
#836=DIRECTION('center_axis',(-1.,-2.5012319973366E-16,5.55207516545775E-32));
#837=DIRECTION('ref_axis',(5.55207516545775E-32,0.,1.));
#838=DIRECTION('',(-2.5012319973366E-16,1.,-2.41936162745023E-16));
#839=DIRECTION('',(5.10906146930125E-37,2.21971575637727E-16,1.));
#840=DIRECTION('center_axis',(-4.84104339639748E-33,2.41936162745023E-16,
1.));
#841=DIRECTION('ref_axis',(1.,0.,4.84104339639748E-33));
#842=DIRECTION('',(-2.44912984307271E-16,1.,-2.41936162745023E-16));
#843=DIRECTION('',(-1.,-2.44945736446581E-16,5.44201881602421E-32));
#844=DIRECTION('',(0.621691837659873,0.783261935106699,-1.89499387003956E-16));
#845=DIRECTION('center_axis',(0.783261935106699,-0.621691837659873,1.37997916766476E-16));
#846=DIRECTION('ref_axis',(1.76183611868841E-16,0.,-1.));
#847=DIRECTION('',(1.50534306740593E-16,4.11627905760063E-16,1.));
#848=DIRECTION('center_axis',(2.44945736446581E-16,-1.,4.11627905760063E-16));
#849=DIRECTION('ref_axis',(0.,-4.11627905760063E-16,-1.));
#850=DIRECTION('',(4.64626986687158E-32,-4.11627905760063E-16,-1.));
#851=DIRECTION('center_axis',(-1.,-2.44912984307271E-16,5.43503201551333E-32));
#852=DIRECTION('ref_axis',(5.43503201551333E-32,0.,1.));
#853=DIRECTION('center_axis',(0.782982617526583,-0.622043584205496,2.18818372949918E-16));
#854=DIRECTION('ref_axis',(2.79467727701488E-16,0.,-1.));
#855=DIRECTION('',(3.17460011401786E-32,-3.51773378113694E-16,-1.));
#856=DIRECTION('',(-5.15226363962679E-17,2.86920480773798E-16,1.));
#857=DIRECTION('',(0.622043584205496,0.782982617526584,-1.87709490025041E-16));
#858=DIRECTION('center_axis',(2.44929359829471E-16,-1.,2.86920480773798E-16));
#859=DIRECTION('ref_axis',(0.,-2.86920480773798E-16,-1.));
#860=DIRECTION('',(1.58900067400146E-32,-2.86920480773798E-16,-1.));
#861=DIRECTION('',(-1.,-2.44929359829471E-16,5.43852429378756E-32));
#862=DIRECTION('center_axis',(2.44995131786894E-16,-1.,2.63012413360872E-16));
#863=DIRECTION('ref_axis',(0.,-2.63012413360872E-16,-1.));
#864=DIRECTION('',(-1.00116712805399E-32,2.63012413360872E-16,1.));
#865=DIRECTION('',(1.,2.44995131786894E-16,-5.44010108748765E-32));
#866=DIRECTION('',(1.00342190938068E-32,-2.63012413360872E-16,-1.));
#867=DIRECTION('center_axis',(-1.,-2.44863605529338E-16,5.43904965539759E-32));
#868=DIRECTION('ref_axis',(5.43904965539759E-32,0.,1.));
#869=DIRECTION('',(-2.44863605529338E-16,1.,-2.3973647156818E-16));
#870=DIRECTION('center_axis',(1.,2.44929359829471E-16,-5.43852429378757E-32));
#871=DIRECTION('ref_axis',(-5.43852429378757E-32,0.,-1.));
#872=DIRECTION('',(-2.44929359829471E-16,1.,-2.79838035959318E-16));
#873=DIRECTION('',(5.19073553507147E-32,-4.33972466031003E-16,-1.));
#874=DIRECTION('center_axis',(-4.33325757109483E-33,2.3973647156818E-16,
1.));
#875=DIRECTION('ref_axis',(1.,0.,4.33325757109483E-33));
#876=DIRECTION('',(-2.44929359829471E-16,1.,-2.79838035959318E-16));
#877=DIRECTION('',(1.,2.44929359829471E-16,-5.43852429378757E-32));
#878=DIRECTION('center_axis',(2.44929359829471E-16,-1.,4.33972466031003E-16));
#879=DIRECTION('ref_axis',(0.,-4.33972466031003E-16,-1.));
#880=DIRECTION('',(-5.19073553507147E-32,4.33972466031003E-16,1.));
#881=DIRECTION('center_axis',(-1.,-2.44929359829471E-16,5.43852429378757E-32));
#882=DIRECTION('ref_axis',(5.43852429378757E-32,0.,1.));
#883=DIRECTION('center_axis',(-3.52404001444611E-32,3.2925278157014E-16,
1.));
#884=DIRECTION('ref_axis',(-1.,-1.22464679914735E-16,4.93038065763132E-32));
#885=DIRECTION('center_axis',(-7.42954872606736E-33,4.63263002376527E-16,
1.));
#886=DIRECTION('ref_axis',(-1.,-1.22464679914735E-16,4.93038065763132E-32));
#887=DIRECTION('',(3.52404001444611E-32,-3.2925278157014E-16,-1.));
#888=DIRECTION('center_axis',(-7.42954872606736E-33,4.63263002376527E-16,
1.));
#889=DIRECTION('ref_axis',(1.,0.,7.42954872606736E-33));
#890=DIRECTION('center_axis',(1.07208176645109E-16,2.22044604925031E-16,
1.));
#891=DIRECTION('ref_axis',(-1.83697019872103E-16,1.,-2.22044604925031E-16));
#892=DIRECTION('center_axis',(2.41218397451495E-16,2.22044604925031E-16,
1.));
#893=DIRECTION('ref_axis',(-1.83697019872103E-16,1.,-2.22044604925031E-16));
#894=DIRECTION('',(-1.07208176645109E-16,-2.22044604925031E-16,-1.));
#895=DIRECTION('center_axis',(2.41218397451495E-16,2.22044604925031E-16,
1.));
#896=DIRECTION('ref_axis',(1.,0.,-2.41218397451495E-16));
#897=DIRECTION('center_axis',(3.36288251099632E-32,1.14836428279922E-16,
1.));
#898=DIRECTION('ref_axis',(1.,2.44929359829471E-16,-5.99130392147195E-32));
#899=DIRECTION('center_axis',(6.46092639437294E-32,-1.91737925264641E-17,
1.));
#900=DIRECTION('ref_axis',(1.,2.44929359829471E-16,-5.99130392147195E-32));
#901=DIRECTION('',(-3.36288251099632E-32,-1.14836428279922E-16,-1.));
#902=DIRECTION('center_axis',(6.46092639437294E-32,-1.91737925264641E-17,
1.));
#903=DIRECTION('ref_axis',(1.,0.,-6.46092639437294E-32));
#904=DIRECTION('center_axis',(-1.07208176645109E-16,2.22044604925031E-16,
1.));
#905=DIRECTION('ref_axis',(6.12323399573677E-17,-1.,2.22044604925031E-16));
#906=DIRECTION('center_axis',(-2.41218397451496E-16,2.22044604925031E-16,
1.));
#907=DIRECTION('ref_axis',(6.12323399573677E-17,-1.,2.22044604925031E-16));
#908=DIRECTION('',(1.07208176645109E-16,-2.22044604925031E-16,-1.));
#909=DIRECTION('center_axis',(-2.41218397451496E-16,2.22044604925031E-16,
1.));
#910=DIRECTION('ref_axis',(1.,0.,2.41218397451496E-16));
#911=DIRECTION('center_axis',(7.87752902225142E-32,-9.95799250102961E-17,
1.));
#912=DIRECTION('ref_axis',(1.,0.,-7.87752902225142E-32));
#913=DIRECTION('center_axis',(7.87752902225142E-32,-9.95799250102961E-17,
1.));
#914=DIRECTION('ref_axis',(1.,2.44929359829471E-16,-5.43852429378757E-32));
#915=DIRECTION('center_axis',(3.9387645111257E-32,6.12323399573679E-17,
1.));
#916=DIRECTION('ref_axis',(1.,2.44929359829471E-16,-5.43852429378757E-32));
#917=DIRECTION('center_axis',(1.96938225556286E-32,1.41638472441199E-16,
1.));
#918=DIRECTION('ref_axis',(1.,2.44929359829471E-16,-5.43852429378757E-32));
#919=DIRECTION('',(-1.96938225556286E-32,-1.41638472441199E-16,-1.));
#920=DIRECTION('center_axis',(7.87752902225142E-32,-9.95799250102961E-17,
1.));
#921=DIRECTION('ref_axis',(1.,2.44929359829471E-16,-5.43852429378757E-32));
#922=DIRECTION('center_axis',(7.87752902225142E-32,-9.95799250102961E-17,
1.));
#923=DIRECTION('ref_axis',(1.,0.,-7.87752902225142E-32));
#924=DIRECTION('center_axis',(3.9387645111257E-32,6.12323399573679E-17,
1.));
#925=DIRECTION('ref_axis',(1.,2.44929359829471E-16,-5.43852429378757E-32));
#926=DIRECTION('center_axis',(3.9387645111257E-32,6.12323399573679E-17,
1.));
#927=DIRECTION('ref_axis',(1.,2.44929359829471E-16,-5.43852429378757E-32));
#928=DIRECTION('',(-3.9387645111257E-32,-6.12323399573679E-17,-1.));
#929=DIRECTION('center_axis',(3.9387645111257E-32,6.12323399573679E-17,
1.));
#930=DIRECTION('ref_axis',(1.,2.44929359829471E-16,-5.43852429378757E-32));
#931=DIRECTION('center_axis',(7.87752902225142E-32,-9.95799250102961E-17,
1.));
#932=DIRECTION('ref_axis',(1.,0.,-7.87752902225142E-32));
#933=DIRECTION('center_axis',(7.87752902225142E-32,-9.95799250102961E-17,
1.));
#934=DIRECTION('ref_axis',(1.,2.44929359829471E-16,-5.43852429378757E-32));
#935=DIRECTION('center_axis',(3.9387645111257E-32,6.12323399573679E-17,
1.));
#936=DIRECTION('ref_axis',(1.,2.44929359829471E-16,-5.43852429378757E-32));
#937=DIRECTION('center_axis',(1.96938225556286E-32,1.41638472441199E-16,
1.));
#938=DIRECTION('ref_axis',(1.,2.44929359829471E-16,-5.43852429378757E-32));
#939=DIRECTION('',(-1.96938225556286E-32,-1.41638472441199E-16,-1.));
#940=DIRECTION('center_axis',(7.87752902225142E-32,-9.95799250102961E-17,
1.));
#941=DIRECTION('ref_axis',(1.,2.44929359829471E-16,-5.43852429378757E-32));
#942=DIRECTION('center_axis',(7.87752902225142E-32,-9.95799250102961E-17,
1.));
#943=DIRECTION('ref_axis',(1.,0.,-7.87752902225142E-32));
#944=DIRECTION('center_axis',(3.9387645111257E-32,6.12323399573679E-17,
1.));
#945=DIRECTION('ref_axis',(1.,2.44929359829471E-16,-5.43852429378757E-32));
#946=DIRECTION('center_axis',(3.9387645111257E-32,6.12323399573679E-17,
1.));
#947=DIRECTION('ref_axis',(1.,2.44929359829471E-16,-5.43852429378757E-32));
#948=DIRECTION('',(-3.9387645111257E-32,-6.12323399573679E-17,-1.));
#949=DIRECTION('center_axis',(3.9387645111257E-32,6.12323399573679E-17,
1.));
#950=DIRECTION('ref_axis',(1.,2.44929359829471E-16,-5.43852429378757E-32));
#951=CARTESIAN_POINT('',(0.,0.,0.));
#952=CARTESIAN_POINT('Origin',(-47.,-54.734375,14.5999995579796));
#953=CARTESIAN_POINT('',(-89.5,-80.,14.5999995579796));
#954=CARTESIAN_POINT('',(-90.,-79.5,14.6));
#955=CARTESIAN_POINT('Origin',(-89.5,-79.5,14.6));
#956=CARTESIAN_POINT('',(-4.5,-80.,14.6));
#957=CARTESIAN_POINT('',(-47.,-80.,14.5999995579796));
#958=CARTESIAN_POINT('',(-4.00000000000002,-79.5,14.5999995579796));
#959=CARTESIAN_POINT('Origin',(-4.5,-79.5,14.6));
#960=CARTESIAN_POINT('',(-4.00000000000001,-14.5,14.6));
#961=CARTESIAN_POINT('',(-4.00000000000002,-54.734375,14.5999995579796));
#962=CARTESIAN_POINT('',(-4.50000000000001,-14.,14.5999995579795));
#963=CARTESIAN_POINT('Origin',(-4.50000000000001,-14.5,14.6));
#964=CARTESIAN_POINT('',(-57.2363480961374,-14.,14.5999995579795));
#965=CARTESIAN_POINT('',(-47.0000000000001,-14.,14.5999995579795));
#966=CARTESIAN_POINT('',(-69.5153095238095,-29.4558516529455,14.5999995579795));
#967=CARTESIAN_POINT('',(-71.3237363462696,-31.732166051178,14.5999995579795));
#968=CARTESIAN_POINT('',(-69.5153095238095,-29.47725,14.5999995579795));
#969=CARTESIAN_POINT('',(-69.5153095238095,-38.234375,14.5999995579795));
#970=CARTESIAN_POINT('',(-90.,-29.47725,14.5999995579795));
#971=CARTESIAN_POINT('',(-63.3809523809524,-29.47725,14.5999995579795));
#972=CARTESIAN_POINT('',(-90.,-30.,14.5999995579795));
#973=CARTESIAN_POINT('',(-90.,-21.734375,14.5999995579795));
#974=CARTESIAN_POINT('',(-89.5,-29.5,14.6));
#975=CARTESIAN_POINT('Origin',(-89.5,-30.,14.6));
#976=CARTESIAN_POINT('Origin',(-89.5,-30.,14.6));
#977=CARTESIAN_POINT('',(-90.,-21.734375,14.5999995579795));
#978=CARTESIAN_POINT('',(-68.7772638628049,-31.5042523306451,14.5999995579795));
#979=CARTESIAN_POINT('',(-68.7772638628049,-31.4828297984342,14.5999995579795));
#980=CARTESIAN_POINT('',(-68.7772638628049,-37.9469791666667,14.5999995579795));
#981=CARTESIAN_POINT('',(-56.4814623454341,-15.9915,14.5999995579795));
#982=CARTESIAN_POINT('',(-64.0786660584999,-25.5631239481195,14.5999995579795));
#983=CARTESIAN_POINT('',(-5.99150000000001,-15.9914999999999,14.5999995579795));
#984=CARTESIAN_POINT('',(-47.,-15.9915,14.5999995579795));
#985=CARTESIAN_POINT('',(-5.99149999999999,-78.0085,14.5999995579796));
#986=CARTESIAN_POINT('',(-5.9915,-50.8671875,14.5999995579796));
#987=CARTESIAN_POINT('',(-88.0085,-78.0085,14.5999995579796));
#988=CARTESIAN_POINT('',(-47.,-78.0085,14.5999995579796));
#989=CARTESIAN_POINT('',(-88.0085,-31.5042523306451,14.5999995579795));
#990=CARTESIAN_POINT('',(-88.0085,-50.8671875,14.5999995579796));
#991=CARTESIAN_POINT('',(-62.89079375,-31.5042523306451,14.5999995579795));
#992=CARTESIAN_POINT('Origin',(-47.,-54.734375,14.5999995579796));
#993=CARTESIAN_POINT('Origin',(-89.5,-79.5,14.6));
#994=CARTESIAN_POINT('',(-90.,-80.,14.5999995579796));
#995=CARTESIAN_POINT('',(-90.,-21.734375,14.5999995579795));
#996=CARTESIAN_POINT('',(-47.,-80.,14.5999995579796));
#997=CARTESIAN_POINT('Origin',(-47.,-54.734375,14.5999995579796));
#998=CARTESIAN_POINT('Origin',(-4.50000000000001,-14.5,14.6));
#999=CARTESIAN_POINT('',(-4.00000000000011,-14.,14.5999995579795));
#1000=CARTESIAN_POINT('',(-4.00000000000002,-54.734375,14.5999995579796));
#1001=CARTESIAN_POINT('',(-47.0000000000001,-14.,14.5999995579795));
#1002=CARTESIAN_POINT('Origin',(-47.,-54.734375,14.5999995579796));
#1003=CARTESIAN_POINT('Origin',(-4.5,-79.5,14.6));
#1004=CARTESIAN_POINT('',(-4.00000000000001,-80.,14.5999995579796));
#1005=CARTESIAN_POINT('',(-47.,-80.,14.5999995579796));
#1006=CARTESIAN_POINT('',(-4.00000000000002,-54.734375,14.5999995579796));
#1007=CARTESIAN_POINT('Origin',(-75.2,-30.,13.5085));
#1008=CARTESIAN_POINT('',(-80.2085,-31.5042523306451,13.5085));
#1009=CARTESIAN_POINT('',(-70.1915,-31.5042523306451,13.5085));
#1010=CARTESIAN_POINT('',(-76.99079375,-31.5042523306451,13.5085));
#1011=CARTESIAN_POINT('',(-80.2085,-29.47725,13.5085));
#1012=CARTESIAN_POINT('',(-80.2085,-30.,13.5085));
#1013=CARTESIAN_POINT('',(-70.1915,-29.47725,13.5085));
#1014=CARTESIAN_POINT('',(-77.4809523809524,-29.47725,13.5085));
#1015=CARTESIAN_POINT('',(-70.1915,-30.,13.5085));
#1016=CARTESIAN_POINT('Origin',(-70.1915,-30.,11.));
#1017=CARTESIAN_POINT('',(-70.1915,-31.5042523306451,8.49150000000001));
#1018=CARTESIAN_POINT('',(-70.1915,-31.5042523306451,11.5));
#1019=CARTESIAN_POINT('',(-70.1915,-29.47725,8.49150000000001));
#1020=CARTESIAN_POINT('',(-70.1915,-29.47725,11.2936506182459));
#1021=CARTESIAN_POINT('',(-70.1915,-30.,8.49150000000001));
#1022=CARTESIAN_POINT('Origin',(-75.2,-30.,8.49150000000001));
#1023=CARTESIAN_POINT('',(-80.2085,-31.5042523306451,8.49150000000001));
#1024=CARTESIAN_POINT('',(-76.99079375,-31.5042523306451,8.49150000000001));
#1025=CARTESIAN_POINT('',(-80.2085,-29.47725,8.49150000000001));
#1026=CARTESIAN_POINT('',(-77.4809523809524,-29.47725,8.49150000000001));
#1027=CARTESIAN_POINT('',(-80.2085,-30.,8.49150000000001));
#1028=CARTESIAN_POINT('Origin',(-80.2085,-30.,11.));
#1029=CARTESIAN_POINT('',(-80.2085,-31.5042523306451,11.5));
#1030=CARTESIAN_POINT('',(-80.2085,-29.47725,11.2936506182459));
#1031=CARTESIAN_POINT('Origin',(-47.,-78.0085,12.));
#1032=CARTESIAN_POINT('',(-5.99149999999999,-78.0085,1.99150000000005));
#1033=CARTESIAN_POINT('',(-5.99149999999999,-78.0085,12.));
#1034=CARTESIAN_POINT('',(-88.0085,-78.0085,1.99150000000005));
#1035=CARTESIAN_POINT('',(-47.,-78.0085,1.99150000000005));
#1036=CARTESIAN_POINT('',(-88.0085,-78.0085,12.));
#1037=CARTESIAN_POINT('Origin',(-88.0085,-47.,12.));
#1038=CARTESIAN_POINT('',(-88.0085,-31.5042523306451,1.99150000000003));
#1039=CARTESIAN_POINT('',(-88.0085,-47.,1.99150000000004));
#1040=CARTESIAN_POINT('',(-88.0085,-31.5042523306451,12.));
#1041=CARTESIAN_POINT('Origin',(-78.7815875,-31.5042523306451,12.));
#1042=CARTESIAN_POINT('',(-68.7772638628049,-31.5042523306452,1.99150000000003));
#1043=CARTESIAN_POINT('',(-62.89079375,-31.5042523306451,1.99150000000003));
#1044=CARTESIAN_POINT('',(-68.7772638628049,-31.5042523306451,15.00255));
#1045=CARTESIAN_POINT('Origin',(-68.7772638628049,-21.1595833333333,15.00255));
#1046=CARTESIAN_POINT('',(-68.7772638628049,-31.4828297984342,1.99150000000004));
#1047=CARTESIAN_POINT('',(-68.7772638628049,-34.0797916666666,1.99150000000003));
#1048=CARTESIAN_POINT('',(-68.7772638628049,-31.4828297984342,18.5097786125));
#1049=CARTESIAN_POINT('Origin',(-47.,-47.,1.99150000000004));
#1050=CARTESIAN_POINT('',(-5.99150000000001,-15.9914999999999,1.99150000000003));
#1051=CARTESIAN_POINT('',(-5.9915,-47.,1.99150000000004));
#1052=CARTESIAN_POINT('',(-56.4814623454341,-15.9915,1.99150000000003));
#1053=CARTESIAN_POINT('',(-47.,-15.9915,1.99150000000003));
#1054=CARTESIAN_POINT('',(-62.195548573002,-23.1906072825054,1.99150000000003));
#1055=CARTESIAN_POINT('Origin',(-56.4747138628049,-15.9829976693548,22.017007225));
#1056=CARTESIAN_POINT('',(-56.4814623454341,-15.9915,17.0085036125));
#1057=CARTESIAN_POINT('Origin',(-47.,-15.9915,12.));
#1058=CARTESIAN_POINT('',(-5.99150000000001,-15.9914999999999,12.));
#1059=CARTESIAN_POINT('Origin',(-5.9915,-47.,12.));
#1060=CARTESIAN_POINT('Origin',(-69.5323095238094,-29.47725,-0.00849999999997724));
#1061=CARTESIAN_POINT('',(-69.5153095238095,-29.4558516529455,2.54289987979021E-14));
#1062=CARTESIAN_POINT('',(-69.5153095238095,-29.4558516529455,5.78940061824587));
#1063=CARTESIAN_POINT('',(-57.2363480961374,-14.,2.19954240094115E-14));
#1064=CARTESIAN_POINT('',(-57.2363480961375,-14.,3.6457498894949));
#1065=CARTESIAN_POINT('',(-71.3237363462696,-31.732166051178,2.59722798823248E-14));
#1066=CARTESIAN_POINT('Origin',(-47.0000000000001,-14.,7.29999977898978));
#1067=CARTESIAN_POINT('',(-4.00000000000011,-14.,2.19954240094115E-14));
#1068=CARTESIAN_POINT('',(-4.00000000000011,-14.,7.29999977898978));
#1069=CARTESIAN_POINT('',(-47.0000000000001,-14.,2.19954240094115E-14));
#1070=CARTESIAN_POINT('Origin',(-79.7619047619048,-29.47725,11.5873012364917));
#1071=CARTESIAN_POINT('',(-69.5153095238095,-29.47725,2.66453525910038E-14));
#1072=CARTESIAN_POINT('',(-69.5153095238095,-29.47725,11.5873012364917));
#1073=CARTESIAN_POINT('',(-90.,-29.47725,2.63265472514628E-14));
#1074=CARTESIAN_POINT('',(-63.3809523809524,-29.47725,2.48689957516035E-14));
#1075=CARTESIAN_POINT('',(-90.,-29.47725,9.44365050774075));
#1076=CARTESIAN_POINT('Origin',(-69.5153095238095,-21.734375,11.5873012364917));
#1077=CARTESIAN_POINT('',(-69.5153095238095,-38.234375,2.75335310107039E-14));
#1078=CARTESIAN_POINT('Origin',(-90.,-54.734375,7.29999977898979));
#1079=CARTESIAN_POINT('',(-90.,-80.,3.75443600707752E-14));
#1080=CARTESIAN_POINT('',(-90.,-21.734375,2.41597963187843E-14));
#1081=CARTESIAN_POINT('',(-90.,-80.,7.2999997789898));
#1082=CARTESIAN_POINT('Origin',(-47.,-54.734375,3.14872682813104E-14));
#1083=CARTESIAN_POINT('',(-4.00000000000001,-80.,3.75443600707752E-14));
#1084=CARTESIAN_POINT('',(-4.00000000000011,-21.734375,2.41597963187843E-14));
#1085=CARTESIAN_POINT('',(-47.,-80.,3.75443600707752E-14));
#1086=CARTESIAN_POINT('Origin',(-47.,-80.,7.2999997789898));
#1087=CARTESIAN_POINT('',(-4.00000000000001,-80.,7.2999997789898));
#1088=CARTESIAN_POINT('Origin',(-4.00000000000002,-54.734375,7.29999977898979));
#1089=CARTESIAN_POINT('Origin',(-4.50000000000001,-14.5,14.6));
#1090=CARTESIAN_POINT('',(-4.00000000000001,-14.5,16.1));
#1091=CARTESIAN_POINT('Origin',(-4.50000000000001,-14.5,16.1));
#1092=CARTESIAN_POINT('',(-4.00000000000001,-14.5,14.6));
#1093=CARTESIAN_POINT('Origin',(-4.50000000000001,-14.5,16.1));
#1094=CARTESIAN_POINT('Origin',(-4.5,-79.5,14.6));
#1095=CARTESIAN_POINT('',(-4.5,-80.,16.1));
#1096=CARTESIAN_POINT('Origin',(-4.5,-79.5,16.1));
#1097=CARTESIAN_POINT('',(-4.5,-80.,14.6));
#1098=CARTESIAN_POINT('Origin',(-4.5,-79.5,16.1));
#1099=CARTESIAN_POINT('Origin',(-89.5,-79.5,14.6));
#1100=CARTESIAN_POINT('',(-90.,-79.5,16.1));
#1101=CARTESIAN_POINT('Origin',(-89.5,-79.5,16.1));
#1102=CARTESIAN_POINT('',(-90.,-79.5,14.6));
#1103=CARTESIAN_POINT('Origin',(-89.5,-79.5,16.1));
#1104=CARTESIAN_POINT('Origin',(-89.5,-30.,14.6));
#1105=CARTESIAN_POINT('',(-89.5,-29.5,16.1));
#1106=CARTESIAN_POINT('Origin',(-89.5,-30.,16.1));
#1107=CARTESIAN_POINT('',(-89.5,-29.5,14.6));
#1108=CARTESIAN_POINT('Origin',(-89.5,-30.,16.1));
#1109=CARTESIAN_POINT('Origin',(-82.4,-61.4,7.00000000000003));
#1110=CARTESIAN_POINT('',(-83.65,-61.4,7.00000000000003));
#1111=CARTESIAN_POINT('Origin',(-82.4,-61.4,7.00000000000003));
#1112=CARTESIAN_POINT('',(-83.4,-61.4,7.00000000000003));
#1113=CARTESIAN_POINT('Origin',(-82.4,-61.4,7.00000000000003));
#1114=CARTESIAN_POINT('Origin',(-82.4,-61.4,2.00000000000003));
#1115=CARTESIAN_POINT('',(-83.65,-61.4,2.00000000000003));
#1116=CARTESIAN_POINT('',(-83.65,-61.4,2.00000000000003));
#1117=CARTESIAN_POINT('Origin',(-82.4,-61.4,2.00000000000003));
#1118=CARTESIAN_POINT('Origin',(-82.4,-61.4,2.00000000000003));
#1119=CARTESIAN_POINT('Origin',(-82.4,-61.4,7.00000000000003));
#1120=CARTESIAN_POINT('',(-83.4,-61.4,9.00000000000004));
#1121=CARTESIAN_POINT('Origin',(-82.4,-61.4,9.00000000000004));
#1122=CARTESIAN_POINT('',(-83.4,-61.4,7.00000000000003));
#1123=CARTESIAN_POINT('Origin',(-82.4,-61.4,9.00000000000004));
#1124=CARTESIAN_POINT('Origin',(-9.90000000000002,-30.9,7.00000000000002));
#1125=CARTESIAN_POINT('',(-11.15,-30.9,7.00000000000002));
#1126=CARTESIAN_POINT('Origin',(-9.90000000000002,-30.9,7.00000000000002));
#1127=CARTESIAN_POINT('',(-10.9,-30.9,7.00000000000002));
#1128=CARTESIAN_POINT('Origin',(-9.90000000000002,-30.9,7.00000000000002));
#1129=CARTESIAN_POINT('Origin',(-9.90000000000002,-30.9,2.00000000000003));
#1130=CARTESIAN_POINT('',(-11.15,-30.9,2.00000000000003));
#1131=CARTESIAN_POINT('',(-11.15,-30.9,2.00000000000003));
#1132=CARTESIAN_POINT('Origin',(-9.90000000000002,-30.9,2.00000000000003));
#1133=CARTESIAN_POINT('Origin',(-9.90000000000002,-30.9,2.00000000000003));
#1134=CARTESIAN_POINT('Origin',(-9.90000000000002,-30.9,7.00000000000002));
#1135=CARTESIAN_POINT('',(-10.9,-30.9,9.00000000000004));
#1136=CARTESIAN_POINT('Origin',(-9.90000000000002,-30.9,9.00000000000004));
#1137=CARTESIAN_POINT('',(-10.9,-30.9,7.00000000000002));
#1138=CARTESIAN_POINT('Origin',(-9.90000000000002,-30.9,9.00000000000004));
#1139=UNCERTAINTY_MEASURE_WITH_UNIT(LENGTH_MEASURE(0.01),#1143,
'DISTANCE_ACCURACY_VALUE',
'Maximum model space distance between geometric entities at asserted c
onnectivities');
#1140=UNCERTAINTY_MEASURE_WITH_UNIT(LENGTH_MEASURE(0.01),#1143,
'DISTANCE_ACCURACY_VALUE',
'Maximum model space distance between geometric entities at asserted c
onnectivities');
#1141=(
GEOMETRIC_REPRESENTATION_CONTEXT(3)
GLOBAL_UNCERTAINTY_ASSIGNED_CONTEXT((#1139))
GLOBAL_UNIT_ASSIGNED_CONTEXT((#1143,#1145,#1146))
REPRESENTATION_CONTEXT('','3D')
);
#1142=(
GEOMETRIC_REPRESENTATION_CONTEXT(3)
GLOBAL_UNCERTAINTY_ASSIGNED_CONTEXT((#1140))
GLOBAL_UNIT_ASSIGNED_CONTEXT((#1143,#1145,#1146))
REPRESENTATION_CONTEXT('','3D')
);
#1143=(
LENGTH_UNIT()
NAMED_UNIT(*)
SI_UNIT(.MILLI.,.METRE.)
);
#1144=(
LENGTH_UNIT()
NAMED_UNIT(*)
SI_UNIT($,.METRE.)
);
#1145=(
NAMED_UNIT(*)
PLANE_ANGLE_UNIT()
SI_UNIT($,.RADIAN.)
);
#1146=(
NAMED_UNIT(*)
SI_UNIT($,.STERADIAN.)
SOLID_ANGLE_UNIT()
);
#1147=SHAPE_DEFINITION_REPRESENTATION(#1148,#1149);
#1148=PRODUCT_DEFINITION_SHAPE('',$,#1151);
#1149=SHAPE_REPRESENTATION('',(#693),#1141);
#1150=PRODUCT_DEFINITION_CONTEXT('part definition',#1155,'design');
#1151=PRODUCT_DEFINITION('FusionComponent','FusionComponent',#1152,#1150);
#1152=PRODUCT_DEFINITION_FORMATION('',$,#1157);
#1153=PRODUCT_RELATED_PRODUCT_CATEGORY('FusionComponent',
'FusionComponent',(#1157));
#1154=APPLICATION_PROTOCOL_DEFINITION('international standard',
'automotive_design',2009,#1155);
#1155=APPLICATION_CONTEXT(
'Core Data for Automotive Mechanical Design Process');
#1156=PRODUCT_CONTEXT('part definition',#1155,'mechanical');
#1157=PRODUCT('FusionComponent','FusionComponent',$,(#1156));
#1158=PRESENTATION_STYLE_ASSIGNMENT((#1160));
#1159=PRESENTATION_STYLE_ASSIGNMENT((#1161));
#1160=SURFACE_STYLE_USAGE(.BOTH.,#1162);
#1161=SURFACE_STYLE_USAGE(.BOTH.,#1163);
#1162=SURFACE_SIDE_STYLE('',(#1164));
#1163=SURFACE_SIDE_STYLE('',(#1165));
#1164=SURFACE_STYLE_FILL_AREA(#1166);
#1165=SURFACE_STYLE_FILL_AREA(#1167);
#1166=FILL_AREA_STYLE('Steel - Satin',(#1168));
#1167=FILL_AREA_STYLE('Opaque(245,131,31)',(#1169));
#1168=FILL_AREA_STYLE_COLOUR('Steel - Satin',#1170);
#1169=FILL_AREA_STYLE_COLOUR('Opaque(245,131,31)',#1171);
#1170=COLOUR_RGB('Steel - Satin',0.627450980392157,0.627450980392157,0.627450980392157);
#1171=COLOUR_RGB('Opaque(245,131,31)',0.96078431372549,0.513725490196078,
0.12156862745098);
ENDSEC;
END-ISO-10303-21;
